<svg xmlns="http://www.w3.org/2000/svg" xmlns:xlink="http://www.w3.org/1999/xlink" width="1080" zoomAndPan="magnify" viewBox="0 0 810 809.999993" height="1080" preserveAspectRatio="xMidYMid meet" version="1.0"><defs><clipPath id="4253b2de5d"><path d="M 165.019531 155.066406 L 672.996094 155.066406 L 672.996094 695.097656 L 165.019531 695.097656 Z M 165.019531 155.066406 " clip-rule="nonzero"/></clipPath><clipPath id="e7dbdbe9a1"><path d="M 630.230469 178.199219 L 809.855469 178.199219 L 809.855469 262.859375 L 630.230469 262.859375 Z M 630.230469 178.199219 " clip-rule="nonzero"/></clipPath></defs><path fill="#ffffff" d="M 686.046875 116.425781 C 668.101562 122.839844 646.546875 156.421875 637.828125 191.910156 C 634.71875 204.140625 633.617188 222.6875 635.621094 226.5 C 637.125 229.40625 641.539062 230.308594 643.238281 228.199219 C 643.941406 227.402344 645.347656 221.183594 646.546875 214.367188 C 650.257812 192.3125 658.78125 168.753906 668.703125 152.8125 C 677.527344 138.777344 688.449219 128.25 694.265625 128.25 C 697.675781 128.25 699.78125 132.0625 698.582031 136.171875 C 697.273438 140.984375 695.171875 144.09375 682.839844 160.53125 C 676.722656 168.652344 669.105469 179.78125 666 185.394531 C 659.28125 197.226562 651.964844 215.371094 653.265625 216.671875 C 654.566406 217.976562 663.890625 206.949219 674.71875 191.414062 C 679.53125 184.496094 688.253906 172.964844 693.96875 165.847656 C 709.207031 147 713.015625 138.777344 711.210938 128.851562 C 710.40625 124.441406 705.296875 118.425781 700.882812 116.625 C 697.074219 115.019531 690.359375 114.917969 686.046875 116.425781 " fill-opacity="1" fill-rule="evenodd"/><g clip-path="url(#4253b2de5d)"><path fill="#ffffff" d="M 376.773438 156.824219 C 339.78125 162.136719 307.300781 174.769531 277.023438 195.519531 C 215.773438 237.425781 175.972656 305.597656 166.75 384.492188 C 164.84375 400.933594 164.84375 431.8125 166.75 448.050781 C 176.074219 527.550781 215.46875 597.925781 276.324219 643.839844 C 310.808594 669.707031 351.210938 686.546875 395.519531 693.363281 C 410.757812 695.671875 445.546875 695.671875 460.484375 693.363281 C 503.390625 686.746094 541.285156 670.308594 575.46875 643.539062 C 586.097656 635.21875 604.945312 616.472656 613.769531 605.445312 C 675.019531 528.753906 690.058594 421.386719 652.765625 326.75 C 621.785156 248.15625 561.535156 190.507812 485.246094 166.351562 L 474.921875 163.042969 L 472.210938 165.042969 C 468.902344 167.449219 468.199219 171.761719 470.609375 174.464844 C 471.613281 175.570312 474.921875 177.175781 477.929688 178.074219 C 502.691406 185.195312 534.367188 202.441406 558.226562 221.585938 C 611.460938 264.292969 645.84375 325.746094 656.074219 396.421875 C 658.578125 413.464844 658.578125 452.164062 656.175781 468.101562 C 651.460938 498.476562 643.640625 524.144531 631.511719 548.804688 C 595.824219 621.285156 530.859375 668.601562 452.964844 678.726562 C 439.230469 680.535156 407.75 680.230469 394.417969 678.230469 C 342.6875 670.207031 298.078125 647.148438 259.378906 608.550781 C 216.472656 565.542969 189.90625 510.40625 182.085938 448.050781 C 180.484375 434.71875 180.484375 397.425781 182.085938 384.894531 C 186.398438 352.613281 194.921875 324.441406 208.554688 297.375 C 232.011719 251.0625 268.101562 214.46875 312.214844 192.511719 C 344.292969 176.574219 371.761719 169.757812 413.0625 167.449219 C 429.804688 166.449219 437.925781 164.945312 437.925781 162.539062 C 437.925781 160.933594 430.40625 157.523438 424.492188 156.421875 C 416.671875 155.019531 387.601562 155.222656 376.773438 156.824219 " fill-opacity="1" fill-rule="evenodd"/></g><g clip-path="url(#e7dbdbe9a1)"><path fill="#ffffff" d="M 784.992188 195.417969 C 794.820312 199.027344 799.230469 204.945312 795.117188 208.65625 C 789.304688 213.765625 778.777344 215.472656 753.214844 215.472656 C 720.136719 215.472656 699.175781 219.582031 675.21875 230.90625 C 669.808594 233.316406 665.496094 235.21875 665.496094 235.019531 C 665.496094 234.816406 670.609375 231.207031 676.824219 227.097656 C 704.894531 208.453125 731.058594 196.824219 752.308594 193.414062 C 761.9375 191.910156 778.375 192.914062 784.992188 195.417969 Z M 754.21875 179.078125 C 746.097656 180.082031 734.371094 182.890625 726.648438 185.59375 C 708.703125 191.910156 682.4375 206.847656 665.496094 220.382812 C 658.78125 225.695312 651.460938 233.816406 651.460938 235.921875 C 651.460938 236.625 649.855469 238.726562 647.851562 240.636719 C 645.945312 242.4375 642.636719 246.246094 640.632812 249.050781 C 638.628906 251.761719 635.417969 255.371094 633.714844 256.875 C 630.710938 259.582031 629.304688 262.589844 631.210938 262.589844 C 632.914062 262.488281 641.136719 260.484375 642.9375 259.679688 C 644.042969 259.179688 648.554688 257.175781 652.960938 255.273438 C 657.375 253.363281 666.800781 249.253906 673.917969 246.046875 C 701.988281 233.71875 715.320312 230.90625 753.214844 229.507812 C 767.148438 228.90625 781.183594 227.902344 784.890625 227.097656 C 800.132812 223.792969 809.855469 215.269531 809.855469 205.144531 C 809.753906 197.324219 802.335938 188.300781 792.113281 183.792969 C 782.789062 179.679688 765.949219 177.578125 754.21875 179.078125 " fill-opacity="1" fill-rule="evenodd"/></g><path fill="#ffffff" d="M 105.195312 234.816406 C 98.378906 238.226562 96.574219 247.25 99.984375 260.683594 C 102.289062 269.804688 117.425781 301.488281 123.539062 309.808594 C 127.152344 314.71875 131.261719 316.722656 133.765625 314.617188 C 136.875 312.113281 135.871094 309.304688 120.234375 274.820312 C 114.820312 262.890625 111.710938 253.0625 112.3125 249.253906 C 112.613281 247.148438 112.914062 247.25 116.421875 250.960938 C 122.136719 256.773438 124.742188 262.890625 129.554688 281.835938 C 136.171875 308.203125 138.277344 311.710938 140.984375 300.582031 C 143.492188 290.257812 139.980469 264.894531 134.667969 253.96875 C 133.164062 250.960938 129.65625 246.046875 126.847656 242.839844 C 119.230469 234.617188 111.3125 231.609375 105.195312 234.816406 " fill-opacity="1" fill-rule="evenodd"/><path fill="#ffffff" d="M 533.265625 287.652344 C 515.621094 290.054688 501.082031 297.976562 495.972656 307.902344 C 493.765625 312.113281 493.664062 314.417969 495.070312 318.328125 C 495.871094 320.433594 496.476562 320.734375 497.273438 319.929688 C 497.976562 319.230469 499.179688 318.726562 499.984375 318.726562 C 500.78125 318.726562 503.59375 316.925781 506.199219 314.71875 C 516.222656 306.296875 526.949219 302.6875 542.191406 302.6875 C 547.398438 302.6875 554.214844 303.390625 557.222656 304.191406 C 569.65625 307.5 574.867188 305.496094 571.457031 298.578125 C 567.453125 290.558594 549.609375 285.445312 533.265625 287.652344 " fill-opacity="1" fill-rule="evenodd"/><path fill="#ffffff" d="M 58.578125 310.207031 C 73.816406 314.019531 88.054688 321.535156 99.28125 331.5625 C 104.492188 336.375 112.515625 345.796875 111.8125 346.398438 C 111.609375 346.699219 109.40625 346.097656 107 345.195312 C 89.457031 338.980469 72.414062 337.574219 46.546875 340.28125 C 18.777344 343.191406 14.066406 341.988281 13.066406 331.960938 C 12.363281 324.242188 17.273438 314.820312 24.492188 310.007812 C 30.308594 306.296875 42.941406 306.296875 58.578125 310.207031 Z M 29.003906 293.164062 C 13.667969 296.574219 2.136719 310.808594 1.035156 327.449219 C 0.132812 341.683594 5.046875 350.105469 16.375 353.316406 C 21.585938 354.917969 24.292969 355.019531 36.425781 354.21875 C 44.144531 353.714844 58.378906 353.316406 68.003906 353.316406 C 85.445312 353.316406 85.644531 353.316406 102.289062 357.625 C 113.617188 360.53125 120.535156 361.835938 123.84375 361.636719 L 128.65625 361.335938 L 128.953125 355.820312 C 129.757812 340.585938 108.703125 315.320312 85.546875 303.792969 C 66.195312 294.265625 43.339844 289.957031 29.003906 293.164062 " fill-opacity="1" fill-rule="evenodd"/><path fill="#ffffff" d="M 270.910156 335.070312 C 250.15625 341.988281 225.394531 367.652344 225.394531 382.386719 C 225.394531 387.300781 227.101562 389.203125 231.109375 388.703125 C 233.316406 388.503906 235.121094 386.597656 240.132812 379.378906 C 247.75 368.25 258.480469 358.128906 267.902344 353.117188 L 275.019531 349.304688 L 291.261719 348.804688 C 301.484375 348.503906 307.902344 347.902344 308.703125 347.097656 C 310.507812 345.296875 305.898438 340.082031 299.78125 337.074219 C 295.371094 334.871094 292.664062 334.367188 284.742188 334.066406 C 278.425781 333.867188 273.617188 334.269531 270.910156 335.070312 " fill-opacity="1" fill-rule="evenodd"/><path fill="#ffffff" d="M 505.09375 490.257812 C 525.144531 491.859375 541.1875 495.570312 541.1875 498.578125 C 541.1875 500.484375 533.765625 514.519531 529.152344 521.234375 C 514.320312 543.089844 498.679688 557.023438 476.222656 568.253906 C 457.078125 577.878906 439.03125 581.789062 413.867188 581.789062 C 394.21875 581.789062 387 580.183594 371.261719 572.359375 C 358.527344 566.046875 350.808594 560.234375 337.574219 546.699219 C 328.753906 537.476562 318.628906 525.445312 318.628906 523.941406 C 318.628906 523.742188 325.042969 520.332031 332.964844 516.320312 C 365.847656 499.882812 401.234375 491.058594 441.4375 489.253906 C 460.785156 488.351562 486.648438 488.753906 505.09375 490.257812 Z M 565.445312 368.554688 C 564.339844 369.554688 560.632812 373.765625 557.222656 377.875 C 528.453125 412.761719 482.238281 429.808594 405.546875 434.117188 C 374.769531 435.820312 339.980469 434.117188 319.128906 429.90625 C 305.394531 427.101562 288.652344 421.386719 285.445312 418.378906 C 282.238281 415.371094 277.527344 415.171875 274.917969 418.078125 C 272.414062 420.882812 272.613281 429.707031 275.320312 438.226562 C 276.523438 441.738281 277.925781 448.152344 278.527344 452.5625 C 280.132812 463.390625 286.847656 489.957031 291.160156 502.386719 C 299.480469 526.148438 311.8125 544.59375 332.964844 565.042969 C 363.941406 594.917969 397.125 604.339844 443.140625 596.523438 C 497.773438 587.097656 540.582031 549.804688 561.132812 493.367188 C 569.554688 470.308594 573.367188 453.667969 575.167969 431.511719 C 576.972656 409.65625 578.476562 375.972656 577.777344 373.164062 C 576.773438 368.953125 574.371094 366.847656 570.761719 366.847656 C 568.953125 366.847656 566.546875 367.652344 565.445312 368.554688 " fill-opacity="1" fill-rule="evenodd"/></svg>