<svg xmlns="http://www.w3.org/2000/svg" xmlns:xlink="http://www.w3.org/1999/xlink" width="1080" zoomAndPan="magnify" viewBox="0 0 810 809.999993" height="1080" preserveAspectRatio="xMidYMid meet" version="1.0"><defs><clipPath id="a89e2c20d2"><path d="M 24.300781 5 L 784 5 L 784 793 L 24.300781 793 Z M 24.300781 5 " clip-rule="nonzero"/></clipPath></defs><path fill="#ffffff" d="M 74.726562 8.328125 C 64.523438 13.433594 44.710938 34.445312 38.558594 46.597656 C 33.457031 56.957031 32.703125 63.558594 36.308594 68.664062 C 40.207031 74.363281 45.761719 72.566406 51.464844 63.707031 C 54.015625 59.507812 61.070312 49.601562 67.074219 41.496094 C 76.527344 28.59375 84.785156 13.132812 84.933594 7.878906 C 84.933594 4.425781 82.230469 4.578125 74.726562 8.328125 " fill-opacity="1" fill-rule="evenodd"/><g clip-path="url(#a89e2c20d2)"><path fill="#ffffff" d="M 455.640625 29.34375 C 539.234375 41.496094 618.929688 86.226562 673.558594 151.359375 C 709.878906 194.882812 739.449219 255.066406 751.304688 309.847656 C 778.769531 437.867188 740.050781 571.289062 648.796875 661.941406 C 595.667969 714.769531 531.582031 748.394531 456.390625 762.648438 C 440.332031 765.648438 433.878906 766.097656 396.355469 766.097656 C 350.882812 766.097656 343.828125 765.199219 309.15625 756.34375 C 263.082031 744.488281 215.507812 720.324219 179.035156 690.609375 C 160.125 675.003906 143.167969 658.488281 137.761719 649.789062 C 134.761719 645.28125 128.15625 635.828125 122.902344 628.929688 C 111.5 614.0625 108.195312 607.609375 100.691406 586.75 C 97.539062 578.046875 91.6875 563.1875 87.636719 553.734375 C 83.582031 544.277344 76.980469 526.71875 72.929688 514.710938 C 69.023438 502.703125 62.273438 484.84375 58.21875 474.789062 C 54.015625 464.882812 49.511719 452.875 48.3125 448.074219 C 44.410156 433.515625 43.8125 411.304688 46.511719 387.890625 C 47.863281 376.332031 49.664062 357.421875 50.414062 345.867188 C 52.664062 314.050781 57.769531 298.140625 82.683594 246.808594 C 107.597656 195.632812 122.304688 176.722656 178.886719 122.394531 C 219.558594 83.222656 230.214844 74.964844 256.777344 61.757812 C 273.289062 53.503906 307.207031 40.445312 324.015625 35.941406 C 360.335938 26.042969 414.816406 23.339844 455.640625 29.34375 Z M 385.101562 6.074219 C 352.234375 8.03125 332.871094 11.78125 295.5 23.941406 C 255.878906 36.84375 231.714844 48.253906 202 67.914062 C 116.902344 124.195312 55.667969 213.945312 33.304688 315.097656 C 26.101562 348.117188 24.300781 365.828125 24.300781 403.648438 C 24.300781 441.46875 26.101562 459.179688 33.304688 492.199219 C 56.417969 596.808594 121.402344 687.15625 212.503906 741.488281 C 321.464844 806.324219 455.640625 809.925781 569.402344 750.945312 C 605.421875 732.332031 634.238281 711.171875 663.652344 682.054688 C 686.316406 659.390625 697.277344 646.335938 714.386719 620.816406 C 746.949219 572.34375 768.710938 517.5625 778.167969 459.78125 C 785.675781 414.003906 785.371094 370.929688 777.570312 325.003906 C 763.3125 242.011719 724.140625 166.96875 664.859375 109.484375 C 589.214844 36.09375 491.8125 0.0742188 385.101562 6.074219 " fill-opacity="1" fill-rule="evenodd"/></g><path fill="#ffffff" d="M 253.027344 281.929688 C 250.175781 283.578125 246.574219 285.230469 245.222656 285.6875 C 243.871094 286.128906 241.46875 288.234375 239.96875 290.636719 C 237.71875 293.9375 237.269531 297.691406 237.417969 312.097656 C 237.71875 356.675781 248.976562 381.136719 269.085938 381.136719 C 285.144531 381.136719 296.550781 360.875 296.550781 332.359375 C 296.550781 307.292969 288.597656 288.085938 275.238281 281.179688 C 269.535156 278.179688 259.332031 278.628906 253.027344 281.929688 " fill-opacity="1" fill-rule="evenodd"/><path fill="#ffffff" d="M 502.167969 288.6875 C 491.511719 291.6875 483.554688 296.339844 473.652344 305.644531 C 458.792969 319.300781 445.285156 341.8125 445.132812 352.921875 C 445.132812 362.074219 456.539062 366.429688 462.695312 359.671875 C 464.496094 357.875 468.398438 352.019531 471.546875 346.617188 C 483.855469 325.304688 501.265625 312.097656 516.722656 312.097656 C 527.832031 312.097656 533.683594 314.949219 541.339844 324.253906 C 554.246094 339.863281 558.597656 343.617188 563.398438 343.617188 C 575.707031 343.617188 574.359375 327.707031 560.25 307.894531 C 548.390625 291.386719 523.027344 282.984375 502.167969 288.6875 " fill-opacity="1" fill-rule="evenodd"/><path fill="#ffffff" d="M 571.953125 419.410156 C 565.050781 426.160156 567.90625 434.117188 579.757812 442.070312 C 584.113281 444.921875 587.710938 447.773438 587.710938 448.523438 C 587.710938 451.976562 572.855469 485.894531 566.398438 497.453125 C 530.683594 560.488281 490.160156 597.105469 440.179688 611.367188 C 402.960938 622.167969 368.59375 619.769531 307.957031 602.507812 C 282.894531 595.304688 277.042969 594.554688 271.039062 597.710938 C 257.980469 604.308594 274.789062 616.765625 313.8125 629.523438 C 346.679688 640.332031 363.339844 643.03125 395.605469 643.03125 C 419.621094 642.882812 425.324219 642.433594 437.628906 639.433594 C 492.410156 625.925781 536.386719 592.90625 571.65625 539.023438 C 590.414062 510.507812 605.421875 480.339844 607.976562 466.234375 C 608.574219 463.082031 609.921875 460.082031 610.976562 459.78125 C 611.878906 459.328125 616.980469 461.132812 622.382812 463.683594 C 627.636719 466.085938 633.191406 468.183594 634.6875 468.183594 C 637.992188 468.183594 643.546875 465.484375 645.046875 463.082031 C 647.296875 459.929688 646.246094 451.976562 643.097656 448.074219 C 639.789062 443.871094 583.664062 415.65625 578.410156 415.65625 C 576.910156 415.65625 573.90625 417.304688 571.953125 419.410156 " fill-opacity="1" fill-rule="evenodd"/><path fill="#ffffff" d="M 124.554688 25.589844 C 109.398438 35.492188 89.886719 55.152344 84.484375 65.808594 C 79.378906 76.167969 78.929688 85.773438 83.582031 89.074219 C 88.535156 92.375 92.589844 89.972656 98.292969 80.070312 C 103.542969 71.0625 113.898438 60.261719 137.914062 38.195312 C 148.269531 28.59375 150.972656 25.285156 150.972656 21.984375 C 150.972656 18.082031 150.671875 17.9375 143.617188 17.9375 C 137.464844 17.9375 134.609375 18.984375 124.554688 25.589844 " fill-opacity="1" fill-rule="evenodd"/></svg>