<svg xmlns="http://www.w3.org/2000/svg" xmlns:xlink="http://www.w3.org/1999/xlink" width="1080" zoomAndPan="magnify" viewBox="0 0 810 809.999993" height="1080" preserveAspectRatio="xMidYMid meet" version="1.0"><path fill="#ffffff" d="M 132.933594 314.78125 C 130.523438 311.160156 123.9375 311.40625 127.53125 300.542969 C 130.46875 291.667969 144.996094 258.1875 176.023438 222.835938 C 267.734375 118.339844 419.621094 97.820312 531.523438 148.320312 C 710.082031 228.90625 763.496094 447.171875 638.984375 596.988281 C 540.601562 715.355469 370.976562 734.183594 249.285156 661.132812 C 117.855469 582.230469 82.871094 422.09375 131.207031 318.933594 C 131.804688 317.652344 132.296875 316.320312 132.933594 314.78125 Z M 149.078125 314.828125 C 147.457031 319.480469 148.105469 316.320312 144.933594 330.59375 C 134.46875 377.664062 131.617188 427.261719 142.871094 474.148438 C 181.007812 633.070312 331.460938 713.949219 459.878906 684.894531 C 641.230469 643.859375 716.957031 448.382812 649.390625 299.890625 C 555.789062 94.179688 274.792969 76.257812 165.753906 301.601562 C 162.34375 308.644531 157.824219 314.023438 149.078125 314.828125 Z M 149.078125 314.828125 " fill-opacity="1" fill-rule="nonzero"/><path fill="#ffffff" d="M 120.082031 591.015625 C 119.839844 591.886719 119.667969 593.070312 119.191406 594.113281 C 117.414062 598.023438 115.09375 601.617188 112.589844 605.097656 C 86.816406 640.898438 86.546875 657.539062 63 703.582031 C 53.847656 721.472656 45.871094 733.46875 27.21875 728.53125 C 7.828125 723.398438 4.675781 689.40625 31.800781 651.945312 C 48.539062 628.832031 73.894531 599.042969 99.851562 587.171875 C 107.203125 583.808594 115.457031 585.824219 119.277344 589.453125 C 119.597656 589.757812 119.714844 590.277344 120.082031 591.015625 Z M 68.484375 634.136719 C 67.550781 634.910156 67.101562 635.890625 67.191406 637.109375 C 65.816406 637.09375 65.097656 638.085938 64.386719 639.011719 C 49.101562 658.894531 30 685.472656 33.03125 710.367188 C 33.160156 711.441406 34.632812 713.726562 37.414062 707.972656 C 44.019531 694.304688 41.628906 701.039062 67.085938 637.015625 C 68.953125 633.183594 68.878906 633.695312 68.484375 634.136719 Z M 68.484375 634.136719 " fill-opacity="1" fill-rule="nonzero"/><path fill="#ffffff" d="M 120.042969 538.636719 C 117.375 545.675781 111.695312 539.726562 94.34375 556.652344 C 76.191406 574.359375 62.824219 604.714844 42.144531 613.339844 C 27.027344 619.648438 6.863281 616.664062 4.128906 597.941406 C -0.00390625 569.648438 46 523.84375 102.179688 533.019531 C 115.855469 535.253906 118.367188 534.902344 120.042969 538.636719 Z M 91.820312 538.734375 C 59.316406 535.355469 6.882812 578.300781 25.113281 606.390625 C 43.199219 602.261719 60.828125 557.375 89.90625 540.777344 C 90.453125 540.46875 90.8125 539.828125 91.820312 538.734375 Z M 91.820312 538.734375 " fill-opacity="1" fill-rule="nonzero"/><path fill="#ffffff" d="M 627.777344 166.398438 C 626.960938 167.382812 626.136719 168.363281 625.300781 169.34375 C 623.433594 171.527344 621.339844 173.847656 618.53125 174.328125 C 612.75 175.320312 612.492188 167.683594 612.277344 163.796875 C 610.117188 124.398438 651.816406 75.773438 696.539062 79.730469 C 722.027344 81.988281 715.34375 116.671875 690.398438 126.535156 C 678.597656 131.273438 666.0625 134.304688 654.839844 140.457031 C 643.4375 146.707031 635.933594 156.585938 627.777344 166.398438 Z M 697.589844 87.726562 C 692.386719 86.726562 689.09375 87.753906 684.097656 89.820312 C 658.335938 100.488281 641.289062 119.679688 630.363281 144.828125 C 630.273438 145.039062 630.746094 145.496094 630.957031 145.835938 C 634.234375 144.421875 641.710938 136.40625 662.488281 129.828125 C 682.398438 123.527344 699.679688 121.070312 702.976562 101.660156 C 703.921875 96.085938 702.855469 91.285156 697.589844 87.726562 Z M 697.589844 87.726562 " fill-opacity="1" fill-rule="nonzero"/><path fill="#ffffff" d="M 689.070312 172.980469 C 685.429688 164.300781 704.304688 145.304688 709.003906 141.3125 C 719.230469 132.621094 731.566406 126.425781 744.292969 122.324219 C 759.871094 117.300781 791.726562 110.101562 803.894531 126.117188 C 810 134.15625 809.261719 139.074219 805.121094 145.738281 C 796.273438 159.964844 774.167969 159.183594 759.648438 160.691406 C 737.875 162.949219 719.398438 171.300781 698.261719 175.851562 C 695.90625 176.359375 693.257812 176.820312 691.238281 175.503906 C 690.1875 174.820312 689.484375 173.96875 689.070312 172.980469 Z M 716.992188 156.507812 C 717.507812 156.742188 717.730469 156.9375 717.929688 156.917969 C 718.871094 156.8125 719.824219 156.726562 720.734375 156.492188 C 764.121094 145.464844 787.554688 158.09375 793.851562 140.816406 C 796.515625 133.507812 788.9375 126.578125 780.800781 125.914062 C 772.90625 125.273438 749.09375 129.351562 728.199219 145.203125 C 725.371094 147.347656 722.789062 149.832031 720.207031 152.277344 C 719.03125 153.386719 717.566406 154.332031 716.992188 156.507812 Z M 716.992188 156.507812 " fill-opacity="1" fill-rule="nonzero"/><path fill="#ffffff" d="M 261.835938 528.765625 C 265.941406 527.316406 270.09375 527.761719 274.132812 529.609375 C 287.210938 535.582031 341.066406 570.953125 429.253906 519.128906 C 470.359375 494.972656 506.105469 458.4375 530.597656 419.425781 C 544.953125 396.558594 551.308594 378.875 559.75 352.234375 C 561.542969 346.578125 563.445312 343.425781 572.214844 342.644531 C 576.011719 342.304688 579.820312 342.371094 583.472656 343.84375 C 591.332031 347.015625 587.195312 351.148438 587.679688 354.300781 C 589.277344 355.59375 590.914062 356.925781 592.316406 358.066406 C 594.132812 361.921875 594.34375 365.714844 594.359375 369.535156 C 594.492188 401.609375 593.855469 429.617188 584.398438 463.550781 C 558.660156 555.871094 485.421875 617.546875 393.367188 608.972656 C 335.945312 603.621094 288.410156 574.710938 260.53125 539.28125 C 256.058594 533.597656 256.972656 533.082031 261.835938 528.765625 Z M 491.203125 567.242188 C 491.203125 556.828125 490.269531 551.707031 489.691406 537.320312 C 488 495.515625 490.3125 495.707031 486.773438 495.5625 C 483.84375 498.050781 480.621094 500.789062 477.390625 503.535156 C 476.949219 513.519531 476.445312 531.050781 476.3125 538.515625 C 475.632812 576.460938 475.625 575.71875 477.09375 576.429688 C 481.753906 574.699219 483.070312 573.851562 491.203125 567.242188 Z M 520.0625 461.996094 C 519.679688 471.261719 518.621094 516.460938 519.925781 533.269531 C 519.992188 534.132812 519.875 535.226562 521.222656 535.335938 C 525.433594 530.382812 528.488281 525.703125 532.542969 517.957031 C 532.542969 506.238281 530.363281 461.800781 529.957031 454.234375 C 529.90625 453.253906 529.679688 452.386719 527.941406 452.453125 C 525.445312 455.472656 522.75 458.742188 520.0625 461.996094 Z M 499.71875 483.707031 C 499.621094 485.46875 499.859375 486.992188 499.398438 488.261719 C 497.140625 494.511719 500.125 552.035156 500.824219 555.875 C 500.953125 556.574219 501.308594 557.171875 502.640625 557.167969 C 517.40625 543.242188 509.863281 552.871094 509.496094 525.882812 C 508.816406 476.601562 511.050781 477.136719 508.304688 475.117188 C 505.492188 477.6875 502.730469 480.507812 499.71875 483.707031 Z M 443.472656 591.664062 C 445.78125 527.375 448.882812 529.464844 446.007812 525.734375 C 442.851562 526.84375 439.957031 528.789062 436.890625 530.648438 C 436.195312 535.285156 436.816406 533.695312 434.820312 537.9375 C 430.117188 594.929688 429.703125 592.957031 431.222656 595 C 435.019531 594.417969 438.976562 593.949219 443.472656 591.664062 Z M 465.382812 583.378906 C 466.640625 579.375 465.558594 578.730469 466.191406 546.515625 C 466.871094 512.042969 469.125 509.683594 462.507812 514.53125 C 460.808594 515.777344 458.808594 516.710938 457.613281 519.046875 C 457.488281 520.46875 455.054688 552.308594 453.84375 584.726562 C 453.800781 585.859375 453.730469 587.097656 455.519531 588.050781 C 458.671875 586.871094 462.234375 585.753906 465.382812 583.378906 Z M 415.738281 540.929688 C 414.078125 549.898438 407.496094 590.539062 407.496094 596.363281 C 411.707031 597.710938 415.554688 597.363281 419.625 596.058594 C 421.5 584.285156 420.015625 596.089844 425.09375 540.003906 C 425.175781 539.128906 425.292969 538.09375 423.675781 537.453125 C 421.445312 538.429688 418.882812 539.554688 415.738281 540.929688 Z M 396.65625 596.375 C 399.316406 584.363281 398.695312 579.476562 404.957031 548.398438 C 405.082031 547.769531 404.824219 547.066406 404.746094 546.417969 C 400.757812 546.394531 400.617188 546.4375 394.851562 549.414062 C 392.585938 556.253906 392.234375 558.3125 387.675781 592.015625 C 387.554688 592.910156 387.660156 593.832031 387.660156 594.8125 C 390.460938 596.375 393.148438 596.804688 396.65625 596.375 Z M 543.015625 496.582031 C 545.910156 492.113281 547.535156 487.355469 547.363281 481.882812 C 545.722656 429.019531 548.101562 428.960938 545.289062 429.039062 C 543.007812 431.753906 541.03125 434.921875 539.410156 439.074219 C 541.308594 485.515625 541.328125 499.1875 543.015625 496.582031 Z M 376.128906 593.074219 C 379.339844 590.84375 376.5 591.828125 382.246094 562.710938 C 382.839844 559.703125 383.265625 556.660156 383.6875 553.625 C 383.730469 553.320312 383.191406 552.9375 382.917969 552.585938 C 380.695312 552.449219 378.238281 553.121094 377.785156 555.296875 C 375.378906 566.882812 373.003906 578.472656 370.695312 590.078125 C 370.578125 590.652344 371.132812 591.355469 371.410156 592.082031 C 373.0625 592.429688 374.671875 592.769531 376.128906 593.074219 Z M 556.976562 450.382812 C 558.273438 450.332031 558.320312 449.53125 558.464844 448.878906 C 561.898438 433.046875 564.074219 417.054688 564.570312 400.851562 C 564.589844 400.332031 564.042969 400.152344 563.203125 400.425781 C 561.738281 402.867188 560.152344 405.5 558.757812 407.820312 C 558.304688 413.402344 558.882812 411.355469 555.972656 416.734375 C 556.992188 437.535156 556.734375 428.777344 556.976562 450.382812 Z M 353.652344 585.933594 C 356.128906 586.363281 357.710938 588.605469 360.773438 587.523438 C 361.128906 585.976562 364.070312 573.382812 367.527344 557.273438 C 367.601562 556.933594 367.15625 556.480469 366.949219 556.074219 C 365.527344 555.558594 364.175781 555.710938 362.878906 556.542969 C 360.070312 559.226562 354.117188 583.847656 353.652344 585.933594 Z M 350.421875 557.382812 C 349.335938 557.457031 348.417969 557.523438 347.578125 557.582031 C 346.121094 559.410156 344.796875 561.078125 343.496094 562.710938 C 341.742188 567.910156 339.542969 572.902344 338.515625 578.074219 C 339.921875 579.917969 341.429688 580.851562 343.878906 580.710938 C 346.816406 574.90625 347.957031 568.308594 350.28125 562.148438 C 350.777344 560.835938 351.457031 559.53125 350.421875 557.382812 Z M 321.367188 568.585938 C 324.167969 571.058594 326.882812 572.46875 329.507812 572.808594 C 334.8125 559.53125 335.011719 559.585938 334.46875 557.945312 C 331.753906 556.914062 328.808594 557.152344 325.71875 557.597656 C 323.441406 561.046875 322.101562 564.742188 321.367188 568.585938 Z M 315.246094 556.417969 C 309.636719 554.589844 304.042969 553.789062 298.589844 552.429688 C 297.992188 552.277344 297.703125 552.449219 297.714844 552.964844 C 304.753906 558.824219 307.460938 560.660156 312.371094 562.871094 C 314.1875 561.210938 314.714844 558.984375 315.246094 556.417969 Z M 315.246094 556.417969 " fill-opacity="1" fill-rule="nonzero"/><path fill="#ffffff" d="M 536.796875 259.328125 C 535.832031 263.316406 532.210938 262.613281 528.964844 263.417969 C 507.34375 277.089844 489.078125 294.792969 474.109375 315.886719 C 476.589844 318.839844 479.625 311.230469 531.894531 304.480469 C 549.828125 302.164062 555.8125 310.355469 549.199219 313.921875 C 542.128906 317.734375 542.542969 314.09375 529.757812 317.597656 C 485.433594 329.75 470.875 341.253906 452.730469 353.21875 C 449.671875 356.753906 447.835938 361.0625 444.03125 363.859375 C 441.015625 365.59375 437.835938 366.171875 434.679688 364.121094 C 431.773438 362.234375 431.429688 359.121094 430.972656 356.003906 C 430.183594 350.605469 431.6875 348.910156 435.902344 339.234375 C 444.035156 320.546875 458.714844 302.675781 473.265625 288.402344 C 493.933594 268.132812 533.054688 250.007812 536.796875 259.328125 Z M 536.796875 259.328125 " fill-opacity="1" fill-rule="nonzero"/><path fill="#ffffff" d="M 253.6875 423.269531 C 236.542969 425.453125 210.640625 441.765625 205.386719 456.035156 C 202.511719 457.734375 199.628906 458.707031 196.429688 457.988281 C 191.433594 456.859375 188.695312 454.609375 190.296875 449.742188 C 193.023438 441.453125 202.101562 430.925781 208.066406 425.019531 C 221.035156 412.175781 252.441406 402.125 282.066406 409.4375 C 284.722656 410.089844 292.125 410.472656 296.164062 411.300781 C 301.558594 412.398438 302.847656 417.371094 297.265625 419.902344 C 294.445312 421.183594 291.835938 422.832031 289.097656 424.210938 C 277.105469 430.246094 257.515625 452.507812 247.992188 465.335938 C 243.714844 471.101562 243.363281 471.960938 240.332031 481.222656 C 235.050781 484.976562 232.609375 485.253906 227.09375 482.570312 C 224.742188 478.578125 224.765625 474.164062 226.105469 469.699219 C 229.628906 457.945312 240.664062 441.332031 247.753906 431.316406 C 250.484375 427.457031 253.9375 425.304688 253.6875 423.269531 Z M 253.6875 423.269531 " fill-opacity="1" fill-rule="nonzero"/></svg>