<svg xmlns="http://www.w3.org/2000/svg" xmlns:xlink="http://www.w3.org/1999/xlink" width="1080" zoomAndPan="magnify" viewBox="0 0 810 809.999993" height="1080" preserveAspectRatio="xMidYMid meet" version="1.0"><path fill="#ffffff" d="M 121.363281 72.050781 C 125.203125 85.929688 138.195312 92.722656 149.414062 100.695312 C 163 110.144531 176.582031 119.300781 189.871094 129.636719 C 215.5625 149.125 239.777344 170.683594 262.21875 193.714844 C 264.285156 183.378906 266.355469 173.042969 268.421875 162.414062 C 245.09375 175.996094 222.058594 189.875 199.027344 203.753906 C 176.582031 217.339844 151.777344 229.445312 131.699219 246.277344 C 115.753906 260.15625 133.46875 282.304688 151.1875 275.511719 C 175.105469 266.359375 196.957031 250.707031 219.105469 237.714844 C 241.546875 224.722656 263.992188 211.726562 286.136719 198.441406 C 296.472656 192.238281 302.085938 177.179688 292.339844 167.136719 C 268.421875 143.21875 242.730469 121.070312 215.265625 101.285156 C 201.980469 91.542969 188.101562 82.09375 173.925781 73.824219 C 161.816406 66.738281 144.691406 54.925781 130.222656 59.058594 C 124.609375 60.535156 119.589844 65.851562 121.363281 72.050781 Z M 121.363281 72.050781 " fill-opacity="1" fill-rule="nonzero"/><path fill="#ffffff" d="M 587.636719 7.085938 C 563.128906 26.871094 543.933594 56.695312 526.804688 82.976562 C 508.792969 110.738281 493.140625 139.675781 478.96875 169.207031 C 474.539062 178.359375 481.625 192.535156 491.371094 194.894531 C 517.0625 201.394531 542.160156 209.367188 566.964844 218.816406 C 590 227.675781 614.507812 244.800781 639.609375 246.867188 C 654.078125 248.050781 661.164062 231.21875 652.898438 220.585938 C 637.246094 200.507812 605.945312 190.761719 582.910156 181.609375 C 557.515625 171.273438 531.53125 163.300781 504.953125 156.804688 C 509.085938 165.367188 513.222656 173.929688 517.355469 182.492188 C 530.644531 154.144531 545.113281 126.09375 561.058594 99.21875 C 576.414062 73.234375 595.316406 47.839844 607.71875 20.375 C 613.03125 8.269531 596.789062 0 587.636719 7.085938 Z M 587.636719 7.085938 " fill-opacity="1" fill-rule="nonzero"/><path fill="#ffffff" d="M 105.121094 480.742188 C 152.367188 500.234375 209.65625 499.347656 260.449219 498.460938 C 314.191406 497.574219 368.230469 493.144531 421.089844 483.402344 C 525.625 464.207031 629.570312 428.769531 721.996094 376.207031 C 712.253906 367.644531 702.800781 359.082031 693.058594 350.519531 C 646.402344 473.953125 603.582031 609.789062 497.570312 696.605469 C 454.753906 731.746094 398.054688 760.09375 341.359375 758.027344 C 293.519531 756.257812 248.929688 729.382812 214.972656 696.902344 C 166.839844 650.835938 134.058594 592.367188 111.617188 529.761719 C 103.941406 508.796875 70.570312 520.902344 75 542.164062 C 99.214844 658.21875 193.414062 779.585938 315.964844 799.960938 C 377.089844 810 442.054688 786.375 492.253906 753.304688 C 550.429688 714.914062 596.199219 660.578125 630.453125 600.339844 C 672.976562 525.628906 700.144531 443.535156 732.628906 364.101562 C 739.417969 347.269531 719.339844 330.140625 703.6875 338.410156 C 612.144531 387.726562 515.878906 424.34375 413.707031 443.535156 C 363.210938 452.984375 312.417969 459.480469 261.039062 461.253906 C 209.953125 463.027344 157.390625 455.347656 106.894531 461.550781 C 96.261719 463.320312 96.851562 477.496094 105.121094 480.742188 Z M 105.121094 480.742188 " fill-opacity="1" fill-rule="nonzero"/></svg>