<svg xmlns="http://www.w3.org/2000/svg" xmlns:xlink="http://www.w3.org/1999/xlink" width="1080" zoomAndPan="magnify" viewBox="0 0 810 809.999993" height="1080" preserveAspectRatio="xMidYMid meet" version="1.0"><path fill="#ffffff" d="M 809.820312 405 C 809.820312 628.574219 628.574219 809.910156 404.910156 809.910156 C 181.246094 809.910156 0 628.574219 0 405 C 0 181.425781 181.335938 0.0898438 404.910156 0.0898438 C 628.484375 0.0898438 809.820312 181.425781 809.820312 405 Z M 404.910156 26.289062 C 195.773438 26.289062 26.199219 195.863281 26.199219 405 C 26.199219 614.136719 195.773438 783.714844 404.910156 783.714844 C 614.050781 783.714844 783.625 614.136719 783.625 405 C 783.625 195.863281 614.050781 26.289062 404.910156 26.289062 Z M 414.625 678.652344 C 327.386719 677.761719 252.355469 623.316406 229.457031 544.277344 C 223.308594 522.980469 221.96875 501.414062 224.554688 479.585938 C 226.246094 464.703125 232.394531 459.179688 247.1875 459.089844 C 355.367188 458.644531 463.542969 458.289062 571.722656 457.929688 C 585.890625 457.929688 591.949219 463.011719 595.160156 476.910156 C 610.484375 541.871094 577.246094 614.761719 515.496094 651.476562 C 484.484375 670.097656 450.714844 678.742188 414.625 678.652344 Z M 356.792969 639.265625 C 404.289062 662.4375 500.078125 645.59375 520.484375 610.929688 C 463.1875 590.703125 397.691406 597.921875 356.792969 639.265625 Z M 577.425781 291.742188 C 606.03125 283.902344 635.078125 281.316406 664.574219 285.503906 C 672.683594 286.664062 679.1875 284.703125 681.683594 276.058594 C 683.820312 268.574219 679.542969 261.089844 670.988281 258.503906 C 665.109375 256.722656 658.605469 255.386719 652.542969 255.832031 C 629.910156 257.4375 607.097656 258.59375 584.820312 262.425781 C 559.871094 266.703125 536.96875 277.21875 518.078125 294.773438 C 513.445312 299.136719 509.257812 304.839844 506.941406 310.722656 C 503.019531 320.96875 511.574219 330.59375 521.644531 326.851562 C 532.515625 322.839844 541.691406 325.691406 549.445312 331.753906 C 566.109375 344.585938 581.703125 358.753906 597.742188 372.386719 C 600.773438 374.96875 604.246094 377.910156 607.722656 379.605469 C 607.722656 379.605469 615.117188 384.328125 622.425781 378.445312 C 630.179688 370.070312 624.832031 362.585938 624.832031 362.585938 C 624.207031 360.535156 621.265625 357.238281 618.949219 354.832031 C 598.988281 334.691406 578.050781 315.625 549.980469 302.078125 C 560.40625 298.070312 568.691406 294.148438 577.425781 291.742188 Z M 191.851562 421.484375 C 192.921875 429.773438 193.1875 438.148438 192.476562 446.523438 C 190.78125 465.863281 186.773438 482.347656 177.414062 497.40625 C 164.40625 518.347656 144.445312 525.207031 123.328125 515.941406 C 102.5625 506.851562 92.136719 485.375 99.355469 462.742188 C 110.851562 426.5625 135.535156 402.328125 170.734375 388.871094 C 179.019531 385.753906 186.863281 390.921875 188.734375 400.722656 C 190.070312 407.941406 191.050781 415.160156 191.851562 421.484375 Z M 163.691406 420.59375 C 143.464844 433.691406 130.988281 450 125.199219 471.03125 C 122.792969 479.761719 126.089844 486.625 134.554688 490.277344 C 143.109375 493.929688 148.988281 490.097656 153.355469 482.703125 C 164.226562 463.902344 165.921875 443.761719 163.691406 420.59375 Z M 267.148438 302.257812 C 239.078125 315.800781 218.136719 334.871094 198.179688 355.011719 C 195.863281 357.328125 193.011719 360.710938 192.296875 362.761719 C 192.296875 362.761719 186.949219 370.246094 194.703125 378.625 C 201.921875 384.503906 209.40625 379.78125 209.40625 379.78125 C 212.96875 378.089844 216.445312 375.148438 219.386719 372.5625 C 235.425781 358.929688 251.019531 344.761719 267.683594 331.929688 C 275.4375 325.960938 284.613281 323.019531 295.484375 327.03125 C 305.554688 330.773438 314.109375 321.148438 310.1875 310.902344 C 307.960938 305.019531 303.773438 299.316406 299.050781 294.949219 C 280.160156 277.394531 257.347656 266.882812 232.308594 262.605469 C 210.03125 258.773438 187.21875 257.613281 164.585938 256.011719 C 158.523438 255.5625 152.019531 256.902344 146.136719 258.683594 C 137.585938 261.265625 133.308594 268.753906 135.445312 276.238281 C 137.941406 284.882812 144.445312 286.839844 152.554688 285.683594 C 182.050781 281.585938 211.097656 284.167969 239.703125 291.921875 C 248.4375 294.238281 256.722656 298.246094 267.148438 302.257812 Z M 628.394531 400.902344 C 630.265625 391.097656 638.109375 385.839844 646.394531 389.050781 C 681.59375 402.503906 706.277344 426.742188 717.773438 462.921875 C 724.988281 485.554688 714.5625 506.941406 693.800781 516.117188 C 672.683594 525.386719 652.632812 518.523438 639.710938 497.585938 C 630.355469 482.523438 626.4375 466.039062 624.652344 446.703125 C 623.941406 438.328125 624.207031 429.949219 625.277344 421.664062 C 626.078125 415.335938 627.058594 408.117188 628.394531 400.902344 Z M 663.863281 482.703125 C 668.226562 490.1875 674.019531 493.929688 682.664062 490.277344 C 691.128906 486.710938 694.425781 479.761719 692.019531 471.03125 C 686.136719 450 673.753906 433.78125 653.523438 420.59375 C 651.207031 443.941406 652.902344 464.078125 663.863281 482.703125 Z M 663.863281 482.703125 " fill-opacity="1" fill-rule="nonzero"/></svg>