<svg xmlns="http://www.w3.org/2000/svg" xmlns:xlink="http://www.w3.org/1999/xlink" width="1080" zoomAndPan="magnify" viewBox="0 0 810 809.999993" height="1080" preserveAspectRatio="xMidYMid meet" version="1.0"><path fill="#ffffff" d="M 204.605469 308.425781 C 210.339844 302.089844 215.472656 295.148438 220 287.90625 C 225.128906 299.375 232.070312 309.636719 241.125 317.78125 C 274.019531 347.054688 309.929688 321.101562 320.796875 286.398438 C 334.679688 242.335938 335.28125 187.410156 323.511719 143.046875 C 322.910156 140.332031 313.554688 142.746094 313.554688 145.765625 C 315.363281 185.601562 312.042969 228.453125 305.101562 267.382812 C 301.785156 284.886719 296.953125 304.503906 284.582031 317.78125 C 271.90625 331.363281 245.953125 288.507812 242.933594 281.871094 C 239.613281 274.628906 237.199219 267.082031 235.089844 259.234375 C 248.367188 228.453125 255.910156 194.050781 261.644531 162.964844 C 271 112.867188 277.640625 51.304688 252.289062 4.828125 C 249.574219 0 235.390625 4.226562 233.882812 8.75 C 217.28125 57.039062 211.546875 111.359375 208.230469 162.058594 C 205.816406 195.859375 203.398438 241.429688 216.074219 277.644531 C 210.339844 288.8125 203.398438 299.375 195.554688 308.425781 C 193.140625 311.445312 202.796875 310.238281 204.605469 308.425781 Z M 230.863281 134.296875 C 233.882812 99.890625 239.3125 65.789062 246.554688 31.6875 C 262.851562 72.128906 254.703125 127.355469 248.667969 165.378906 C 244.746094 189.222656 239.613281 216.082031 231.464844 241.429688 C 225.429688 206.121094 228.148438 167.792969 230.863281 134.296875 Z M 230.863281 134.296875 " fill-opacity="1" fill-rule="nonzero"/><path fill="#ffffff" d="M 358.21875 166.890625 C 358.21875 168.097656 360.027344 168.699219 362.140625 168.398438 C 365.160156 186.808594 373.003906 235.695312 373.910156 241.128906 C 378.4375 271.007812 383.871094 299.976562 396.847656 327.742188 C 400.46875 335.589844 416.160156 329.25 418.878906 323.515625 C 432.757812 293.035156 438.191406 257.425781 446.640625 225.132812 C 451.773438 205.519531 456.902344 185.902344 463.238281 166.585938 C 465.957031 157.835938 469.578125 141.238281 476.21875 134.296875 C 480.140625 130.070312 475.011719 127.957031 471.085938 128.5625 C 443.019531 132.785156 437.285156 178.054688 431.25 199.480469 C 422.5 230.566406 415.859375 262.253906 407.410156 293.339844 C 392.320312 248.371094 392.921875 198.578125 371.796875 155.421875 C 370.589844 152.703125 366.96875 153.609375 364.554688 153.910156 C 364.253906 153.910156 363.648438 154.214844 363.347656 154.214844 C 361.539062 154.515625 357.3125 156.328125 357.914062 159.042969 C 357.613281 162.058594 358.21875 164.476562 358.21875 166.890625 Z M 358.21875 166.890625 " fill-opacity="1" fill-rule="nonzero"/><path fill="#ffffff" d="M 461.128906 263.160156 C 461.730469 286.398438 476.21875 328.949219 502.773438 334.382812 C 529.933594 340.117188 556.191406 319.894531 564.941406 294.546875 C 567.054688 288.8125 553.777344 292.433594 552.269531 293.941406 C 542.914062 302.390625 535.367188 312.050781 525.105469 318.992188 C 513.335938 327.136719 500.359375 301.488281 497.039062 294.847656 C 491.304688 283.984375 487.988281 273.421875 486.78125 262.253906 C 504.285156 269.800781 541.402344 245.355469 551.964844 236.300781 C 565.546875 224.832031 581.542969 206.421875 580.9375 187.410156 C 580.335938 165.078125 556.191406 154.515625 536.875 151.800781 C 477.726562 143.953125 459.921875 220.003906 461.128906 263.160156 Z M 540.496094 168.699219 C 571.28125 180.46875 558.304688 209.742188 541.703125 227.546875 C 534.160156 235.695312 491.003906 271.308594 487.382812 243.542969 C 487.382812 242.636719 486.476562 242.035156 485.269531 241.734375 C 486.78125 210.347656 499.152344 153.007812 540.496094 168.699219 Z M 540.496094 168.699219 " fill-opacity="1" fill-rule="nonzero"/><path fill="#ffffff" d="M 306.613281 121.015625 C 307.820312 124.941406 315.0625 123.734375 317.777344 123.128906 C 321.097656 122.222656 326.832031 120.113281 326.53125 115.886719 C 326.53125 114.378906 326.53125 112.566406 326.53125 111.058594 C 326.832031 110.152344 327.132812 108.945312 328.039062 108.039062 C 328.945312 106.53125 328.945312 105.929688 328.339844 104.71875 C 328.339844 104.417969 328.640625 104.417969 328.945312 104.117188 C 329.546875 103.511719 329.546875 102.910156 329.546875 102.304688 C 329.847656 102.003906 329.847656 101.703125 330.152344 101.402344 C 330.753906 101.097656 331.660156 100.195312 332.566406 99.589844 C 335.28125 97.476562 330.453125 96.875 329.246094 97.175781 C 328.640625 97.476562 327.738281 97.476562 327.132812 97.78125 C 326.53125 98.082031 326.226562 98.082031 326.53125 97.78125 C 326.226562 97.78125 326.226562 97.78125 326.226562 97.78125 C 324.71875 97.78125 322.910156 98.382812 321.398438 98.683594 C 316.269531 99.589844 311.742188 102.003906 309.027344 106.53125 C 308.121094 108.039062 307.820312 109.550781 307.214844 111.058594 C 305.707031 114.378906 305.40625 117.394531 306.613281 121.015625 Z M 306.613281 121.015625 " fill-opacity="1" fill-rule="nonzero"/><path fill="#ffffff" d="M 164.769531 551.667969 C 176.542969 562.535156 197.363281 563.4375 205.210938 547.746094 C 207.324219 543.519531 200.683594 542.3125 197.96875 543.824219 C 181.671875 553.480469 166.882812 529.636719 155.71875 502.476562 C 167.789062 463.246094 173.824219 421.898438 174.429688 380.855469 C 175.03125 350.679688 173.222656 314.765625 153.304688 290.019531 C 140.929688 274.628906 114.675781 269.796875 108.941406 287.605469 C 108.335938 288.207031 107.734375 288.8125 107.128906 289.71875 C 96.867188 312.652344 99.886719 341.625 102.601562 365.765625 C 106.527344 403.492188 114.976562 441.214844 126.140625 477.429688 C 128.859375 486.179688 131.875 495.234375 135.195312 504.289062 C 127.652344 526.921875 117.992188 548.953125 105.320312 569.476562 C 102.300781 574.605469 111.65625 574.605469 114.070312 573.398438 C 130.667969 564.949219 140.023438 547.140625 146.664062 529.035156 C 152.097656 537.484375 157.832031 545.03125 164.769531 551.667969 Z M 136.703125 442.722656 C 128.859375 414.355469 123.125 385.6875 119.503906 356.414062 C 117.089844 335.890625 112.863281 311.445312 119.203125 291.226562 C 120.105469 288.507812 118.898438 287 117.089844 286.398438 C 126.445312 279.457031 142.742188 302.996094 144.851562 307.523438 C 149.683594 317.480469 151.792969 328.648438 153.605469 339.210938 C 158.433594 367.878906 156.019531 398.058594 152.398438 426.730469 C 150.585938 441.515625 148.171875 456.304688 144.851562 470.789062 C 140.929688 458.417969 137.914062 447.855469 136.703125 442.722656 Z M 136.703125 442.722656 " fill-opacity="1" fill-rule="nonzero"/><path fill="#ffffff" d="M 257.722656 500.0625 C 259.230469 498.253906 260.738281 496.441406 261.945312 494.632812 C 267.078125 507.609375 276.132812 516.660156 291.523438 517.265625 C 310.835938 518.171875 322.003906 508.210938 328.640625 493.121094 C 336.1875 503.988281 347.957031 509.117188 365.460938 504.289062 C 380.550781 500.0625 391.113281 489.800781 398.355469 476.523438 C 405.597656 500.667969 421.894531 516.359375 455.089844 508.210938 C 464.445312 505.796875 472.898438 500.96875 480.441406 494.933594 C 487.082031 494.027344 493.71875 491.007812 498.851562 486.484375 C 508.207031 478.03125 516.054688 466.867188 522.390625 455.097656 C 523.296875 465.359375 524.503906 475.617188 525.710938 485.878906 C 529.933594 521.1875 519.371094 548.046875 493.722656 573.097656 C 438.796875 627.117188 349.769531 567.058594 299.367188 536.277344 C 296.953125 534.769531 287.597656 537.785156 290.617188 540.804688 C 336.1875 590.296875 417.972656 622.289062 482.554688 594.824219 C 512.429688 582.148438 536.273438 551.972656 544.722656 521.1875 C 554.378906 484.972656 538.082031 443.027344 540.195312 405.90625 C 540.496094 402.585938 537.78125 401.378906 534.765625 401.078125 C 535.667969 389.308594 532.652344 378.746094 522.390625 372.40625 C 477.726562 344.640625 439.699219 444.234375 448.152344 475.316406 C 450.566406 484.070312 456.300781 489.800781 462.9375 492.820312 C 452.980469 497.648438 442.71875 498.554688 432.757812 492.519531 C 416.765625 483.164062 411.332031 463.246094 410.125 441.515625 C 415.558594 415.5625 415.859375 387.195312 416.160156 367.878906 C 416.460938 359.730469 398.355469 363.351562 397.449219 369.992188 C 395.640625 384.78125 392.621094 408.019531 392.621094 431.253906 C 389.605469 449.964844 384.171875 467.773438 374.515625 483.164062 C 356.105469 512.738281 340.714844 475.015625 335.582031 454.492188 C 337.09375 425.523438 332.867188 394.136719 331.660156 377.839844 C 331.359375 372.707031 316.871094 375.726562 316.871094 380.554688 C 315.96875 397.457031 312.347656 435.179688 317.777344 464.453125 C 313.855469 487.085938 305.40625 514.550781 289.109375 500.363281 C 279.148438 491.613281 276.734375 474.109375 276.433594 458.113281 C 282.167969 433.367188 282.167969 405.90625 281.261719 383.574219 C 280.960938 376.632812 261.945312 381.160156 261.34375 387.496094 C 261.042969 390.210938 260.738281 393.230469 260.136719 396.851562 C 248.96875 389.609375 234.183594 391.722656 220.300781 402.285156 C 191.933594 424.316406 176.238281 463.246094 186.5 497.949219 C 198.269531 535.976562 239.011719 521.1875 257.722656 500.0625 Z M 468.972656 459.019531 C 469.277344 441.214844 476.820312 422.503906 484.667969 406.8125 C 488.890625 398.058594 494.324219 389.910156 501.566406 383.269531 C 513.035156 372.40625 518.46875 399.871094 518.46875 405.300781 C 517.863281 424.917969 500.964844 461.433594 479.234375 481.957031 C 471.691406 477.730469 468.972656 466.867188 468.972656 459.019531 Z M 213.960938 435.480469 C 218.1875 426.125 224.527344 417.375 231.769531 409.828125 C 241.425781 399.871094 250.78125 402.285156 259.230469 408.921875 C 257.421875 423.105469 255.609375 440.609375 255.910156 457.511719 C 249.574219 479.84375 225.128906 531.75 208.832031 493.121094 C 200.382812 473.808594 205.511719 453.589844 213.960938 435.480469 Z M 213.960938 435.480469 " fill-opacity="1" fill-rule="nonzero"/><path fill="#ffffff" d="M 700.144531 534.164062 C 695.917969 537.785156 679.621094 554.386719 673.585938 549.558594 C 668.757812 545.933594 667.550781 537.785156 666.34375 532.355469 C 662.117188 513.039062 663.929688 491.914062 664.835938 472.300781 C 665.738281 450.871094 674.792969 411.335938 646.726562 401.980469 C 615.644531 391.722656 596.628906 435.179688 587.578125 456.304688 C 587.578125 456.605469 587.578125 456.605469 587.273438 456.90625 C 587.878906 436.085938 588.785156 415.5625 589.992188 395.039062 C 592.105469 360.636719 594.214844 326.234375 598.742188 292.132812 C 600.554688 278.25 601.460938 241.734375 614.738281 232.378906 C 619.566406 229.058594 612.925781 227.851562 609.910156 229.058594 C 595.121094 235.09375 590.894531 255.011719 587.273438 268.894531 C 578.523438 302.996094 575.203125 339.210938 572.1875 374.21875 C 567.660156 425.21875 567.054688 476.824219 563.132812 528.128906 C 559.8125 543.21875 558.304688 558.609375 559.207031 572.792969 C 559.511719 579.433594 579.730469 574.90625 580.332031 568.570312 C 581.84375 554.386719 583.050781 540.203125 583.957031 525.714844 C 589.386719 499.15625 599.949219 471.996094 609.605469 449.363281 C 613.832031 439.707031 618.660156 430.351562 624.695312 421.597656 C 626.808594 418.582031 629.222656 415.863281 631.636719 413.449219 C 634.050781 411.035156 632.84375 411.941406 637.070312 415.863281 C 647.632812 425.824219 645.820312 439.101562 645.21875 452.382812 C 643.710938 482.257812 635.5625 523 649.445312 550.765625 C 663.929688 579.132812 698.03125 549.253906 709.5 534.769531 C 713.121094 530.847656 701.953125 532.65625 700.144531 534.164062 Z M 700.144531 534.164062 " fill-opacity="1" fill-rule="nonzero"/><path fill="#ffffff" d="M 384.773438 618.0625 C 378.136719 616.25 361.234375 619.875 357.613281 628.023438 C 331.058594 633.453125 315.664062 691.09375 314.457031 709.203125 C 313.855469 716.746094 315.0625 723.6875 317.476562 730.027344 C 311.140625 746.324219 293.9375 798.53125 272.8125 773.785156 C 257.117188 755.074219 250.175781 726.40625 245.347656 702.261719 C 246.253906 699.546875 247.460938 696.828125 248.367188 694.414062 C 259.230469 663.933594 266.171875 631.339844 268.285156 599.050781 C 269.792969 578.226562 270.699219 551.066406 258.023438 533.261719 C 254.402344 528.128906 243.839844 530.242188 240.519531 534.769531 C 206.117188 582.753906 210.339844 659.40625 225.128906 718.257812 C 212.152344 750.847656 191.628906 783.746094 163.261719 778.914062 C 157.527344 778.011719 151.191406 786.160156 159.039062 787.667969 C 191.628906 793.703125 214.566406 766.242188 230.257812 736.96875 C 230.863281 739.078125 231.464844 741.191406 232.371094 743.304688 C 239.613281 765.335938 257.421875 810 288.804688 800.039062 C 313.554688 792.195312 323.210938 768.957031 326.832031 745.417969 C 343.429688 763.222656 372.703125 768.351562 394.734375 750.546875 C 423.402344 727.308594 419.480469 678.117188 408.617188 647.035156 C 404.691406 634.359375 397.753906 621.683594 384.773438 618.0625 Z M 248.066406 557.101562 C 260.4375 590.601562 248.96875 636.773438 241.125 667.554688 C 240.820312 668.761719 240.519531 669.96875 240.21875 671.175781 C 234.785156 634.359375 233.578125 590.601562 248.066406 557.101562 Z M 388.398438 731.234375 C 375.722656 765.9375 338.601562 740.285156 334.375 713.730469 C 331.960938 698.339844 335.886719 682.042969 341.015625 667.253906 C 342.222656 663.632812 352.183594 637.378906 359.425781 634.359375 C 360.332031 634.359375 361.234375 634.359375 362.140625 634.359375 C 365.160156 634.660156 371.496094 631.945312 370.894531 630.132812 C 373.003906 628.625 373.308594 628.925781 377.832031 634.359375 C 384.171875 641.902344 387.1875 652.164062 389.605469 661.519531 C 395.640625 683.851562 396.542969 709.203125 388.398438 731.234375 Z M 388.398438 731.234375 " fill-opacity="1" fill-rule="nonzero"/><path fill="#ffffff" d="M 661.214844 705.582031 C 640.992188 730.628906 621.679688 769.863281 582.445312 748.738281 C 564.339844 739.078125 557.398438 721.574219 555.285156 702.863281 C 579.730469 701.355469 599.949219 687.777344 612.925781 665.140625 C 637.671875 621.382812 571.28125 583.355469 545.628906 628.023438 C 537.78125 641.601562 532.953125 658.503906 531.445312 675.703125 C 524.203125 665.445312 519.371094 650.355469 512.734375 641.601562 C 507.90625 634.960938 494.625 640.09375 492.816406 647.035156 C 484.667969 677.816406 473.199219 707.695312 460.523438 737.269531 C 458.109375 725.5 455.695312 713.730469 452.980469 701.65625 C 448.753906 682.34375 446.339844 657.597656 434.269531 641.601562 C 431.25 637.679688 421.894531 640.09375 421.292969 644.921875 C 418.878906 665.140625 426.722656 687.777344 430.34375 707.695312 C 434.871094 730.628906 439.398438 753.566406 444.527344 776.5 C 446.640625 785.855469 463.84375 781.027344 466.558594 774.691406 C 481.046875 741.191406 495.230469 706.789062 505.792969 671.78125 C 512.128906 683.550781 519.070312 695.019531 530.839844 700.148438 C 533.253906 723.386719 542.914062 745.417969 560.414062 758.996094 C 579.730469 774.085938 606.890625 771.976562 628.015625 762.621094 C 647.632812 754.167969 671.472656 728.515625 664.835938 705.882812 C 665.136719 703.769531 662.117188 704.375 661.214844 705.582031 Z M 564.039062 633.453125 C 572.789062 611.421875 591.800781 626.816406 596.628906 644.316406 C 602.96875 667.554688 576.710938 687.777344 554.683594 687.777344 C 554.683594 682.34375 554.984375 676.910156 555.585938 671.78125 C 556.492188 658.804688 559.207031 645.523438 564.039062 633.453125 Z M 564.039062 633.453125 " fill-opacity="1" fill-rule="nonzero"/></svg>