<svg xmlns="http://www.w3.org/2000/svg" xmlns:xlink="http://www.w3.org/1999/xlink" width="1080" zoomAndPan="magnify" viewBox="0 0 810 809.999993" height="1080" preserveAspectRatio="xMidYMid meet" version="1.0"><defs><clipPath id="a4f699532a"><path d="M 17 291.476562 L 793 291.476562 L 793 518.726562 L 17 518.726562 Z M 17 291.476562 " clip-rule="nonzero"/></clipPath></defs><g clip-path="url(#a4f699532a)"><path fill="#ffffff" d="M 53.753906 389.613281 L 60.355469 389.613281 C 74.816406 389.640625 89.277344 389.269531 103.714844 389.84375 C 125.867188 390.703125 147.988281 392.199219 170.113281 393.402344 C 178.835938 393.890625 187.5625 394.351562 196.253906 394.808594 C 197.890625 394.894531 199.527344 394.808594 201.792969 394.808594 C 201.132812 390.332031 200.558594 386.425781 199.957031 382.492188 C 197.117188 364.375 197.058594 346.34375 201.535156 328.429688 C 203.800781 319.328125 207.675781 311.03125 213.5 303.652344 C 216.660156 299.660156 220.246094 296.160156 224.777344 293.746094 C 233.675781 289.007812 241.9375 291.679688 245.957031 300.980469 C 251.78125 314.449219 250.203125 327.570312 243.230469 340.203125 C 238.238281 349.246094 230.746094 356.078125 222.3125 361.675781 C 218.121094 364.460938 217.117188 367.417969 217.863281 372.070312 C 219.613281 383.011719 220.960938 394.035156 222.539062 405.003906 C 222.800781 406.726562 223.371094 408.417969 224.117188 411.320312 C 225.609375 408.679688 226.5 407.128906 227.332031 405.578125 C 231.753906 397.480469 236.140625 389.328125 240.648438 381.257812 C 244.519531 374.308594 249.429688 368.136719 255.195312 362.683594 C 256.058594 361.878906 256.859375 360.988281 257.808594 360.328125 C 261.394531 357.859375 265.527344 358.949219 266.703125 363.113281 C 267.507812 365.957031 267.707031 369.113281 267.363281 372.070312 C 266.300781 381.402344 264.980469 390.734375 263.546875 400.035156 C 259.875 424.007812 260.933594 447.984375 263.144531 471.957031 C 263.488281 475.832031 263.863281 479.910156 266.589844 483.84375 C 273.5625 470.867188 279.242188 457.859375 283.949219 445.457031 C 281.453125 440.632812 278.582031 436.730469 277.320312 432.335938 C 274.078125 421.023438 277.378906 411.003906 285.296875 402.648438 C 287.652344 400.179688 288.453125 397.96875 288.050781 394.722656 C 287.363281 389.066406 288.453125 383.671875 291.867188 378.933594 C 296.949219 371.898438 307.421875 366.703125 317.867188 374.882812 C 324.265625 379.910156 328.226562 386.371094 328.511719 394.609375 C 328.65625 398.457031 328.484375 402.363281 328.023438 406.179688 C 327.566406 409.96875 326.53125 413.703125 325.558594 418.355469 C 327.765625 417.492188 329.660156 417.03125 331.269531 416.085938 C 333.878906 414.59375 336.402344 412.898438 338.785156 411.089844 C 342.71875 408.132812 345.386719 404.601562 344.667969 399.144531 C 344.382812 396.90625 345.042969 394.464844 345.5 392.167969 C 346.304688 388.265625 348.285156 386.054688 351.011719 385.765625 C 353.824219 385.449219 356.433594 387.429688 357.582031 391.59375 C 359.160156 397.421875 360.308594 403.367188 361.597656 409.253906 C 361.769531 410.027344 361.886719 410.832031 362.144531 412.324219 C 363.433594 411.089844 364.355469 410.285156 365.214844 409.367188 C 369.605469 404.746094 373.707031 399.804688 378.414062 395.527344 C 385.359375 389.242188 393.449219 385.449219 403.179688 386.339844 C 413.453125 387.289062 421.285156 395.011719 422.175781 405.320312 C 422.492188 408.964844 422.230469 412.667969 422.230469 416.34375 C 426.882812 416.71875 427.425781 416.429688 428.460938 412.324219 C 430.984375 402.246094 436.378906 393.863281 443.324219 386.367188 C 447.714844 381.632812 453.136719 378.789062 459.507812 377.898438 C 464.300781 377.238281 468.574219 378.503906 471.703125 382.347656 C 474.886719 386.253906 475.03125 390.589844 473.082031 395.15625 C 469.0625 404.398438 461.6875 410.027344 452.621094 413.445312 C 449.003906 414.792969 448.488281 414.765625 448.257812 419.558594 C 448.058594 423.835938 448.777344 427.941406 450.726562 431.789062 C 452.851562 435.953125 454.773438 437.128906 459.25 435.722656 C 462.863281 434.574219 466.480469 432.882812 469.578125 430.699219 C 476.238281 426.046875 481.859375 420.21875 486.511719 413.558594 C 488.433594 410.800781 490.382812 410.257812 493.65625 410.488281 C 500.339844 410.945312 507.085938 410.6875 513.800781 410.542969 C 521.863281 410.371094 529.898438 409.855469 537.960938 409.710938 C 560.140625 409.308594 582.324219 409.136719 604.476562 408.589844 C 617.390625 408.277344 630.300781 407.328125 643.246094 406.78125 C 645.742188 406.667969 647.578125 405.949219 649.386719 404.054688 C 656.1875 396.964844 664.046875 391.277344 673.085938 387.289062 C 687.835938 380.769531 702.585938 374.367188 718.484375 371.039062 C 739.515625 366.644531 760.667969 364.980469 782.074219 367.246094 C 784.597656 367.503906 786.777344 368.023438 787.695312 370.636719 C 788.644531 373.304688 787.066406 375.058594 785.257812 376.722656 C 781.183594 380.453125 776.90625 384.042969 773.207031 388.148438 C 768.699219 393.117188 764.710938 398.542969 759.71875 404.773438 C 760.839844 405.40625 761.957031 405.808594 762.789062 406.554688 C 771.683594 414.507812 780.609375 422.402344 789.332031 430.527344 C 794.210938 435.0625 793.089844 439.339844 786.578125 441.035156 C 781.871094 442.242188 777.078125 443.21875 772.257812 443.675781 C 747.898438 445.972656 723.535156 445.917969 699.542969 440.804688 C 689.128906 438.59375 679.054688 434.519531 669.042969 430.726562 C 662.382812 428.203125 656.960938 423.464844 652.285156 418.09375 C 650.648438 416.230469 649.070312 415.625 646.660156 415.796875 C 609.097656 418.324219 571.476562 419.128906 533.828125 418.984375 C 523.757812 418.957031 513.683594 419.503906 503.582031 419.703125 C 499.59375 419.789062 495.578125 419.703125 490.898438 419.703125 C 489.636719 421.742188 488.003906 424.46875 486.308594 427.140625 C 481.171875 435.207031 474.832031 442.039062 466.480469 446.835938 C 452.304688 454.988281 440.710938 451.945312 432.417969 437.761719 C 430.898438 435.179688 429.722656 432.335938 428.832031 429.464844 C 427.941406 426.621094 427.625 423.578125 427.023438 420.421875 C 422.664062 421.050781 419.90625 422.859375 418.472656 427.425781 C 416.175781 434.660156 412.5625 441.351562 407.796875 447.324219 C 404.699219 451.171875 401.054688 454.328125 396.378906 456.195312 C 386.335938 460.15625 377.007812 453.984375 376.605469 443.1875 C 376.375 437.304688 378.300781 432.335938 382.316406 428.085938 C 386.59375 423.550781 391.84375 420.738281 397.8125 419.15625 C 400.25 418.527344 402.691406 417.980469 405.589844 417.292969 C 406.535156 412.898438 406.738281 408.417969 405.503906 403.996094 C 404.296875 399.578125 400.195312 397.078125 395.230469 398.054688 C 391.644531 398.742188 388 399.804688 384.785156 401.472656 C 377.554688 405.175781 371.328125 410.3125 365.671875 416.144531 C 363.78125 418.066406 362.949219 420.078125 363.433594 422.917969 C 367.195312 444.824219 365.875 466.847656 364.496094 488.8125 C 364.125 494.640625 363.089844 500.523438 361.570312 506.152344 C 360.679688 509.398438 358.671875 512.671875 356.320312 515.082031 C 351.296875 520.191406 344.324219 519.789062 339.273438 514.679688 C 336.230469 511.609375 334.511719 507.816406 333.304688 503.742188 C 326.648438 481.289062 329.832031 460.585938 344.238281 441.8125 C 345.15625 440.605469 345.84375 438.796875 345.757812 437.304688 C 345.328125 429.464844 344.609375 421.625 343.949219 413.445312 C 343.292969 413.730469 342.660156 413.847656 342.199219 414.21875 C 336.921875 418.726562 331.152344 422.402344 324.582031 424.8125 C 323.375 425.273438 322.316406 426.621094 321.570312 427.800781 C 319.015625 431.734375 316.804688 435.894531 314.078125 439.714844 C 309.285156 446.492188 302.660156 449.332031 294.367188 448.183594 C 293.21875 448.011719 292.039062 447.953125 290.578125 447.8125 C 290.003906 449.015625 289.371094 450.136719 288.882812 451.34375 C 285.296875 460.558594 281.855469 469.890625 278.066406 479.019531 C 276.34375 483.183594 274.308594 487.347656 271.695312 490.992188 C 266.933594 497.652344 260.847656 498 255.050781 492.226562 C 249.3125 486.515625 245.925781 479.363281 243.632812 471.726562 C 239.210938 457 238.8125 441.925781 240.132812 426.765625 C 241.421875 411.722656 245.984375 397.480469 251.179688 383.410156 C 252.441406 379.964844 253.675781 376.550781 254.910156 373.105469 C 254.59375 372.902344 254.277344 372.671875 253.960938 372.472656 C 252.84375 373.910156 251.636719 375.285156 250.664062 376.808594 C 244.492188 386.28125 239.816406 396.503906 235.625 406.984375 C 234.25 410.402344 233.042969 413.933594 231.292969 417.175781 C 226.960938 425.332031 219.242188 426.535156 212.8125 419.816406 C 210.203125 417.089844 208.421875 413.53125 206.5 410.199219 C 205.410156 408.332031 204.835938 406.179688 203.976562 404.054688 C 203.316406 403.941406 202.65625 403.710938 202.023438 403.738281 C 182.828125 404.34375 163.800781 401.757812 144.691406 401.011719 C 117.660156 399.949219 90.628906 399.664062 63.566406 399.089844 C 60.066406 399.003906 56.539062 399.089844 53.152344 399.089844 C 52.148438 402.074219 51.515625 404.6875 50.398438 407.070312 C 48.933594 410.257812 47.210938 411.203125 43.941406 410.257812 C 37.023438 408.277344 30.167969 406.007812 23.308594 403.796875 C 22.363281 403.480469 21.441406 402.992188 20.640625 402.449219 C 16.707031 399.691406 16.507812 395.242188 20.410156 392.371094 C 22.535156 390.820312 25.085938 389.726562 27.527344 388.695312 C 33.753906 386.023438 39.605469 382.808594 44.484375 378.042969 C 46.320312 376.234375 48.359375 375.34375 50.828125 376.578125 C 53.296875 377.8125 53.8125 379.910156 53.609375 382.492188 C 53.609375 384.53125 53.753906 386.714844 53.753906 389.613281 Z M 664.132812 415.882812 C 664.046875 416.285156 663.960938 416.71875 663.847656 417.117188 C 666.71875 418.8125 669.386719 421.023438 672.457031 422.144531 C 682.242188 425.617188 691.96875 429.550781 702.070312 431.703125 C 723.5625 436.296875 745.457031 435.78125 767.265625 434.71875 C 770.625 434.546875 773.953125 433.800781 777.453125 433.285156 C 777.023438 432.308594 776.964844 431.90625 776.765625 431.703125 C 768.472656 424.382812 760.207031 417.003906 751.800781 409.796875 C 750.910156 409.023438 749.359375 408.707031 748.125 408.734375 C 740.089844 409.023438 732.027344 409.28125 723.992188 409.914062 C 709.789062 411.089844 695.585938 412.496094 681.410156 413.875 C 675.671875 414.449219 669.902344 415.222656 664.132812 415.882812 Z M 659.746094 406.609375 C 691.078125 403.824219 721.726562 401.097656 752.859375 398.339844 C 758.515625 391.394531 764.597656 383.929688 770.738281 376.378906 C 746.175781 370.347656 679.773438 388.292969 659.746094 406.609375 Z M 217.460938 357.742188 C 222.855469 353.78125 227.390625 349.675781 231.378906 344.96875 C 236.457031 338.964844 239.957031 332.191406 241.363281 324.410156 C 242.570312 317.691406 241.539062 311.347656 237.835938 305.605469 C 235.796875 302.417969 234.21875 302.246094 231.292969 304.597656 C 230 305.632812 228.59375 306.78125 227.820312 308.1875 C 225.265625 312.867188 222.425781 317.492188 220.675781 322.488281 C 216.945312 333.050781 216.714844 344.191406 216.832031 355.273438 C 216.800781 355.90625 217.117188 356.480469 217.460938 357.742188 Z M 299.386719 405.03125 C 304.179688 414.21875 309.917969 418.640625 317.265625 418.984375 C 320.5625 412.035156 322.714844 404.660156 323.0625 396.90625 C 323.40625 389.183594 319.644531 383.382812 313.21875 379.390625 C 307.105469 375.601562 300.421875 377.582031 297.148438 383.984375 C 295.339844 387.519531 294.765625 391.25 295.628906 394.984375 C 298.269531 396.042969 300.851562 396.792969 303.144531 398.082031 C 305.269531 399.261719 305.183594 400.898438 303.203125 402.417969 C 302.054688 403.335938 300.792969 404.085938 299.386719 405.03125 Z M 346.933594 447.007812 C 345.757812 447.667969 345.386719 447.753906 345.242188 448.011719 C 333.765625 466.300781 331.839844 485.59375 339.675781 505.722656 C 340.480469 507.789062 342.230469 509.683594 344.007812 511.089844 C 346.363281 512.984375 348.65625 512.210938 349.347656 509.226562 C 350.007812 506.324219 350.121094 503.222656 350.007812 500.238281 C 349.660156 491.855469 349.085938 483.472656 348.601562 475.117188 C 348.054688 465.898438 347.507812 456.710938 346.933594 447.007812 Z M 404.527344 423.175781 C 396.175781 424.410156 390.121094 427.886719 385.558594 433.886719 C 383.035156 437.21875 382.605469 440.949219 383.925781 444.882812 C 385.328125 448.988281 388.628906 450.222656 392.21875 447.898438 C 393.191406 447.265625 394.140625 446.492188 394.855469 445.601562 C 400.023438 439.140625 401.886719 431.359375 404.527344 423.175781 Z M 295.339844 413.300781 C 292.269531 417.808594 292.070312 429.035156 294.996094 433.253906 C 296.832031 435.867188 301.136719 437.304688 304.007812 435.753906 C 308.167969 433.511719 310.953125 429.867188 313.246094 426.132812 C 309.515625 424.152344 306.214844 422.832031 303.40625 420.792969 C 300.476562 418.640625 298.007812 415.828125 295.339844 413.300781 Z M 449.953125 410.832031 C 457.183594 407.988281 462.605469 404.746094 465.90625 398.914062 C 467.027344 396.964844 467.628906 394.550781 467.859375 392.285156 C 468.058594 389.929688 466.421875 388.753906 464.242188 389.699219 C 462.175781 390.617188 460.054688 391.996094 458.617188 393.691406 C 454.628906 398.371094 452.476562 403.996094 449.953125 410.832031 Z M 449.953125 410.832031 " fill-opacity="1" fill-rule="nonzero"/></g></svg>