<svg xmlns="http://www.w3.org/2000/svg" xmlns:xlink="http://www.w3.org/1999/xlink" width="1080" zoomAndPan="magnify" viewBox="0 0 810 809.999993" height="1080" preserveAspectRatio="xMidYMid meet" version="1.0"><path fill="#ffffff" d="M 180.550781 328.488281 C 181.207031 303.203125 187.445312 277.917969 194.671875 253.945312 C 199.597656 238.183594 217.984375 179.402344 240.972656 202.390625 C 287.273438 248.035156 255.421875 378.074219 179.234375 356.726562 C 175.953125 355.742188 164.460938 360.339844 170.371094 363.953125 C 206.492188 385.625 243.597656 358.042969 262.316406 327.175781 C 287.273438 286.457031 288.257812 237.199219 259.359375 198.777344 C 239.65625 172.179688 211.417969 187.941406 196.96875 210.273438 C 184.820312 228.988281 175.625 252.632812 170.042969 276.933594 C 156.90625 200.09375 152.964844 122.921875 149.683594 44.769531 C 149.355469 40.5 137.859375 42.796875 137.53125 47.066406 C 134.25 141.96875 142.785156 238.511719 163.144531 331.441406 C 165.117188 337.683594 180.222656 334.070312 180.550781 328.488281 Z M 180.550781 328.488281 " fill-opacity="1" fill-rule="nonzero"/><path fill="#ffffff" d="M 299.421875 269.050781 C 301.394531 288.753906 307.960938 307.800781 319.125 321.59375 C 350.320312 359.027344 402.535156 306.488281 411.726562 275.949219 C 413.042969 271.679688 401.875 275.617188 400.5625 276.933594 C 387.101562 291.710938 375.277344 310.425781 357.546875 320.277344 C 350.320312 324.546875 341.785156 314.367188 337.84375 309.441406 C 328.320312 296.964844 323.722656 280.214844 322.410156 263.140625 C 329.960938 259.199219 336.53125 253.945312 340.140625 250.992188 C 358.53125 235.558594 379.546875 209.613281 381.515625 184.65625 C 383.160156 163.96875 358.859375 164.957031 344.738281 168.238281 C 326.351562 172.835938 313.871094 187.285156 306.976562 204.03125 C 300.40625 219.792969 297.125 240.152344 298.109375 260.183594 C 295.152344 260.84375 290.886719 262.15625 292.527344 264.453125 C 294.824219 267.082031 296.796875 268.394531 299.421875 269.050781 Z M 323.066406 228.660156 C 324.378906 215.855469 327.992188 203.375 333.902344 191.882812 C 337.84375 184 352.949219 168.238281 359.84375 182.359375 C 368.382812 199.761719 344.410156 237.199219 322.082031 253.289062 C 321.753906 244.75 322.410156 236.214844 323.066406 228.660156 Z M 323.066406 228.660156 " fill-opacity="1" fill-rule="nonzero"/><path fill="#ffffff" d="M 356.5625 427.328125 C 356.5625 443.09375 355.574219 457.867188 349.664062 471.660156 C 342.113281 456.554688 338.171875 439.808594 335.871094 423.0625 C 335.214844 405.328125 332.917969 389.238281 331.605469 379.714844 C 330.617188 373.804688 317.15625 377.417969 317.8125 383.328125 C 319.125 396.789062 319.78125 410.253906 321.097656 423.390625 C 321.425781 443.421875 318.796875 463.78125 310.585938 480.527344 C 296.796875 508.4375 285.632812 448.015625 285.300781 441.121094 C 283.988281 422.074219 285.632812 403.359375 285.300781 384.3125 C 285.300781 378.730469 273.480469 380.699219 273.152344 385.625 C 271.511719 408.285156 259.03125 426.671875 239 435.867188 C 233.089844 422.730469 223.894531 412.550781 210.433594 407.957031 C 206.164062 406.640625 200.910156 408.613281 198.609375 412.222656 C 191.386719 422.730469 189.746094 431.925781 192.371094 438.496094 C 184.820312 449.660156 178.25 464.109375 174.640625 478.558594 C 159.863281 494.320312 142.785156 508.4375 125.710938 522.230469 C 121.113281 485.125 115.203125 448.347656 108.636719 411.566406 C 107.320312 391.863281 104.367188 372.164062 98.457031 354.429688 C 96.15625 348.191406 82.363281 352.132812 83.019531 358.371094 C 85.976562 385.953125 90.902344 413.539062 95.828125 441.121094 C 95.5 465.75 91.230469 489.722656 81.050781 507.453125 C 72.511719 522.230469 55.4375 511.394531 46.898438 502.199219 C 36.0625 490.050781 32.121094 471.332031 29.167969 456.226562 C 24.898438 434.554688 17.675781 394.820312 29.496094 374.132812 C 32.121094 369.207031 21.941406 370.191406 19.644531 373.476562 C 2.898438 399.746094 11.433594 448.675781 18.332031 476.585938 C 24.898438 503.183594 45.257812 531.753906 76.453125 523.871094 C 91.886719 519.933594 99.769531 505.15625 103.710938 489.066406 C 104.367188 493.992188 105.351562 499.246094 106.007812 504.171875 C 107.320312 514.351562 108.636719 524.53125 110.277344 535.039062 C 101.082031 542.917969 92.542969 550.800781 84.664062 559.335938 C 57.078125 589.21875 36.390625 626.984375 22.929688 665.074219 C 10.121094 701.855469 11.761719 744.542969 51.824219 761.617188 C 70.871094 769.5 90.902344 768.515625 106.664062 755.050781 C 124.726562 739.945312 128.996094 710.71875 131.621094 689.046875 C 135.890625 653.582031 133.921875 617.132812 131.292969 581.667969 C 129.980469 565.90625 128.667969 550.472656 126.695312 534.710938 C 140.816406 522.230469 155.921875 509.753906 170.371094 496.289062 C 167.085938 525.1875 175.625 548.5 205.507812 539.636719 C 239.328125 529.457031 252.464844 479.871094 241.628906 443.75 C 253.121094 438.496094 262.644531 430.613281 269.867188 420.761719 C 267.898438 456.882812 270.527344 501.542969 306.648438 494.976562 C 319.125 492.675781 326.351562 482.496094 330.617188 469.035156 C 333.246094 475.929688 336.859375 482.496094 341.125 489.066406 C 344.410156 493.660156 353.605469 490.050781 355.902344 486.4375 C 368.382812 466.734375 368.054688 447.6875 361.816406 425.6875 C 361.816406 424.046875 356.5625 425.359375 356.5625 427.328125 Z M 110.605469 715.972656 C 106.007812 735.675781 96.15625 760.960938 71.855469 755.707031 C 17.015625 743.558594 31.464844 681.167969 47.554688 643.730469 C 62.660156 608.265625 84.664062 577.070312 111.917969 550.144531 C 118.484375 605.3125 122.753906 662.777344 110.605469 715.972656 Z M 220.285156 432.253906 C 221.925781 434.882812 223.566406 437.835938 224.882812 440.792969 C 221.597656 441.449219 218.640625 441.449219 216.34375 440.792969 C 217.65625 438.167969 218.96875 435.210938 220.285156 432.253906 Z M 209.117188 421.417969 C 209.445312 421.417969 209.445312 421.746094 209.777344 421.746094 C 209.445312 422.074219 209.117188 422.074219 208.789062 422.402344 C 208.789062 422.074219 208.789062 421.746094 209.117188 421.417969 Z M 212.074219 525.1875 C 189.085938 552.441406 184.820312 495.960938 186.789062 485.125 C 187.117188 483.8125 187.117188 482.496094 187.445312 481.183594 C 196.3125 471.660156 204.519531 461.480469 211.089844 450.644531 C 215.03125 450.972656 219.296875 450.972656 224.222656 449.988281 C 225.539062 449.660156 226.523438 449.660156 227.507812 449.332031 C 233.746094 474.945312 225.867188 508.765625 212.074219 525.1875 Z M 212.074219 525.1875 " fill-opacity="1" fill-rule="nonzero"/><path fill="#ffffff" d="M 423.550781 344.25 C 398.59375 351.800781 387.757812 372.492188 383.488281 397.117188 C 378.890625 386.9375 372.652344 381.027344 364.441406 383.984375 C 361.484375 384.96875 362.144531 387.597656 365.097656 386.609375 C 378.890625 382.011719 383.160156 477.570312 385.457031 488.40625 C 386.441406 493.332031 399.90625 490.050781 400.234375 485.453125 C 402.207031 437.179688 388.414062 383.65625 428.148438 347.535156 C 431.429688 344.578125 425.519531 343.59375 423.550781 344.25 Z M 423.550781 344.25 " fill-opacity="1" fill-rule="nonzero"/><path fill="#ffffff" d="M 791.660156 278.574219 C 769.988281 282.84375 748.972656 292.039062 728.613281 300.246094 C 723.03125 271.351562 717.121094 242.453125 712.523438 213.226562 C 707.597656 180.0625 705.296875 145.910156 709.894531 112.742188 C 713.179688 89.757812 724.671875 58.234375 755.210938 74.652344 C 775.242188 85.160156 783.125 113.726562 781.480469 134.746094 C 781.480469 135.730469 785.75 135.074219 786.078125 133.757812 C 789.035156 101.90625 768.019531 53.308594 728.613281 67.097656 C 693.476562 79.578125 692.820312 127.847656 692.492188 159.042969 C 692.164062 208.957031 702.015625 258.214844 711.210938 307.144531 C 702.671875 310.425781 694.460938 314.695312 690.191406 319.949219 C 688.550781 322.25 691.507812 322.90625 693.148438 322.90625 C 695.445312 322.90625 698.074219 321.921875 700.371094 321.261719 C 700.699219 321.261719 700.699219 321.261719 700.699219 320.933594 C 703.65625 320.277344 706.613281 319.292969 709.566406 318.308594 C 710.550781 317.980469 711.867188 317.324219 712.851562 316.996094 C 713.507812 321.261719 714.492188 325.53125 715.148438 330.128906 C 718.105469 346.878906 721.0625 363.625 723.359375 380.371094 C 718.433594 404.671875 713.835938 428.644531 707.597656 452.613281 C 706.285156 457.867188 700.699219 482.167969 695.117188 478.226562 C 678.371094 466.734375 668.847656 437.835938 661.953125 420.105469 C 658.667969 411.566406 656.042969 403.03125 654.070312 394.492188 C 660.96875 362.96875 660.96875 328.160156 661.953125 299.917969 C 663.265625 257.558594 667.207031 205.015625 654.726562 163.640625 C 652.757812 157.730469 639.621094 160.6875 639.292969 166.269531 C 635.027344 240.8125 620.25 324.875 636.996094 400.074219 C 632.070312 421.746094 623.859375 444.078125 606.785156 451.957031 C 592.992188 458.527344 574.605469 441.449219 569.351562 430.941406 C 564.09375 420.433594 561.796875 408.613281 561.46875 396.460938 C 561.796875 396.132812 562.125 395.476562 562.453125 395.148438 C 570.335938 384.3125 606.785156 341.292969 595.621094 326.847656 C 591.351562 321.261719 579.53125 326.519531 574.605469 328.488281 C 560.484375 333.742188 554.246094 352.460938 550.632812 365.59375 C 547.675781 376.757812 546.035156 389.566406 546.363281 402.042969 C 535.855469 414.851562 521.734375 423.71875 507.285156 431.925781 C 496.121094 420.761719 481.34375 412.882812 469.523438 403.359375 C 457.371094 393.835938 446.863281 381.355469 453.433594 365.265625 C 457.371094 355.414062 467.882812 348.847656 476.089844 342.9375 C 483.972656 334.398438 492.507812 334.398438 501.703125 343.265625 C 502.359375 349.503906 502.03125 355.742188 500.390625 361.652344 C 500.0625 364.28125 505.644531 363.625 506.300781 360.996094 C 515.824219 309.113281 470.835938 332.101562 447.523438 353.445312 C 412.714844 385.953125 463.941406 416.820312 487.253906 433.570312 C 488.898438 434.882812 491.195312 436.851562 493.496094 439.480469 C 484.300781 444.734375 475.433594 450.316406 467.550781 457.210938 C 437.34375 483.152344 469.195312 501.871094 498.421875 501.871094 C 532.242188 501.871094 528.300781 462.464844 515.496094 442.105469 C 514.511719 440.464844 513.195312 438.824219 511.882812 437.179688 C 524.691406 429.300781 536.183594 421.746094 547.019531 411.894531 C 549.976562 431.925781 559.5 450.316406 578.542969 459.511719 C 598.246094 469.035156 618.933594 462.136719 631.742188 445.0625 C 636.339844 438.824219 640.28125 432.253906 643.234375 425.03125 C 649.472656 443.421875 658.011719 461.152344 669.503906 477.898438 C 682.96875 497.273438 705.296875 497.929688 716.792969 476.914062 C 723.03125 465.421875 726.644531 452.285156 728.941406 438.496094 C 729.269531 441.121094 729.269531 443.421875 729.597656 446.046875 C 732.226562 486.765625 724.015625 524.53125 720.402344 564.59375 C 720.074219 568.859375 731.570312 565.25 732.882812 562.621094 C 756.855469 513.363281 750.285156 449.003906 743.71875 396.460938 C 740.105469 367.566406 734.851562 338.667969 729.269531 310.097656 C 731.242188 309.441406 732.882812 308.785156 734.851562 307.800781 C 751.601562 301.234375 769.332031 293.351562 787.066406 290.066406 C 798.558594 287.769531 807.09375 275.617188 791.660156 278.574219 Z M 566.394531 358.699219 C 567.050781 356.070312 584.785156 321.261719 588.722656 332.101562 C 590.695312 337.683594 584.457031 347.207031 581.828125 352.132812 C 576.246094 362.640625 569.679688 372.492188 562.453125 382.011719 C 563.4375 373.804688 564.753906 365.921875 566.394531 358.699219 Z M 497.761719 494.648438 C 486.269531 494.648438 462.296875 487.09375 469.195312 471.660156 C 473.792969 461.480469 487.253906 453.929688 496.121094 448.015625 C 497.433594 447.03125 498.75 446.375 499.734375 445.71875 C 514.183594 464.109375 529.945312 494.976562 497.761719 494.648438 Z M 646.847656 340.636719 C 644.546875 302.875 647.832031 263.46875 650.789062 225.378906 C 654.398438 263.46875 651.445312 303.859375 646.847656 340.636719 Z M 646.847656 340.636719 " fill-opacity="1" fill-rule="nonzero"/></svg>