<svg xmlns="http://www.w3.org/2000/svg" xmlns:xlink="http://www.w3.org/1999/xlink" width="1080" zoomAndPan="magnify" viewBox="0 0 810 809.999993" height="1080" preserveAspectRatio="xMidYMid meet" version="1.0"><defs><clipPath id="95aa3ab228"><path d="M 759 571 L 801.980469 571 L 801.980469 604 L 759 604 Z M 759 571 " clip-rule="nonzero"/></clipPath></defs><path fill="#ffffff" d="M 493.351562 407.058594 C 476.042969 411.542969 459.800781 419.191406 446.871094 429.234375 C 428.914062 443.1875 378.972656 487.578125 416.761719 507.394531 C 451.394531 525.554688 481.421875 484.898438 494.878906 458.609375 C 500.738281 447.167969 506.222656 434.746094 510.835938 421.855469 C 530.683594 419.910156 550.390625 422.808594 569.597656 430.699219 C 576.296875 433.453125 593.609375 424.703125 583.90625 418.152344 C 564.976562 405.378906 540.800781 401.015625 516.792969 403.042969 C 521.84375 384.625 524.691406 365.726562 523.835938 347.640625 C 523.605469 342.742188 523.023438 337.75 521.730469 333.011719 C 520.203125 327.425781 511.578125 328.277344 507.984375 330.96875 C 496.699219 339.410156 488.324219 350.757812 479.320312 361.449219 C 472.007812 370.125 463.921875 379.496094 453.175781 382.652344 C 453.414062 372.394531 453.03125 359.445312 445.605469 353.640625 C 437.523438 347.324219 426.757812 351.597656 419.613281 357.191406 C 406.621094 367.371094 398.015625 381.316406 389.152344 394.996094 C 387.535156 389.417969 384.484375 384.257812 379.484375 379.636719 C 376.386719 376.773438 369.703125 377.832031 366.710938 380.253906 C 352.5 391.75 341.859375 409.722656 324.828125 417.355469 C 319.828125 419.597656 317.652344 410.445312 317.132812 403.382812 C 318.980469 402.886719 320.824219 402.3125 322.644531 401.582031 C 339.816406 394.6875 351.195312 379.210938 346.5625 360.394531 C 345.175781 354.777344 337.4375 355.402344 333.398438 356.933594 C 321.632812 361.394531 308.40625 374.765625 301.542969 389.34375 C 297.027344 388.015625 292.679688 385.335938 289.183594 381.113281 C 284.085938 374.957031 271.726562 377.875 269.8125 385.585938 C 266.304688 399.71875 260.164062 417.535156 248.695312 427.40625 C 248.585938 427.5 248.484375 427.578125 248.382812 427.664062 C 247.851562 427.027344 247.148438 426.21875 246.664062 425.328125 C 242.214844 417.136719 242.898438 404.640625 242.976562 395.785156 C 243.085938 383.871094 224.363281 387.972656 221.570312 396.574219 C 216.1875 413.191406 209.480469 430.277344 198.539062 444.0625 C 193.398438 450.535156 186.976562 456.632812 178.191406 455.480469 C 168.136719 454.160156 164.617188 443.964844 163.527344 435.230469 C 180.285156 432.558594 196.542969 422.613281 194.855469 403.804688 C 194.074219 395.074219 186.660156 390.792969 178.386719 391.390625 C 164.011719 392.433594 152.414062 404.621094 147.246094 417.203125 C 146.101562 419.988281 145.238281 422.914062 144.644531 425.902344 C 139.816406 427.71875 136.640625 433.386719 143.714844 434.925781 C 143.65625 443.453125 145.910156 451.957031 150.871094 458.898438 C 159.867188 471.5 179.261719 473.140625 192.730469 468.226562 C 208.785156 462.359375 219.777344 449.113281 227.863281 433.894531 C 232.46875 442.660156 240.339844 447.65625 253.714844 442.609375 C 270.320312 436.34375 280.109375 418.085938 285.800781 400.640625 C 289.398438 402.328125 293.1875 403.539062 297.082031 404.238281 C 295.851562 415.085938 299.636719 425.15625 311.769531 431.238281 C 333.847656 442.296875 355.347656 414.195312 371.035156 396.5 C 374.285156 402.953125 374.183594 410.574219 373.15625 418.246094 C 372.15625 425.71875 384.953125 424.578125 387.996094 420.523438 C 398.960938 405.902344 409.285156 390.664062 420.851562 376.519531 C 423.359375 373.445312 426.03125 370.519531 428.832031 367.710938 C 429.917969 366.628906 431.050781 365.679688 432.253906 364.742188 C 432.261719 364.738281 432.269531 364.730469 432.277344 364.726562 C 433.066406 366.285156 433.367188 368.191406 433.71875 369.828125 C 435.191406 376.710938 434.53125 384.003906 434.078125 390.957031 C 433.855469 394.402344 436.683594 397.035156 440.085938 397.28125 C 457.269531 398.527344 472.316406 392.375 484.542969 380.296875 C 492.925781 372.019531 499.105469 361.695312 506.289062 352.320312 C 505.679688 358.75 504.105469 365.242188 502.890625 370.933594 C 500.292969 383.152344 497.160156 395.199219 493.351562 407.058594 Z M 466.050781 467.492188 C 459.796875 477.828125 451.476562 489.636719 439.929688 494.421875 C 431.925781 497.730469 424.109375 488.292969 426.886719 479.996094 C 431.460938 466.355469 444.363281 455.003906 454.972656 445.976562 C 465.394531 437.105469 474.296875 430.304688 485.953125 426.800781 C 486.070312 426.765625 486.191406 426.734375 486.304688 426.699219 C 480.671875 440.816406 473.917969 454.492188 466.050781 467.492188 Z M 176.984375 404.53125 C 177.152344 404.894531 177.652344 405.488281 177.90625 406.519531 C 180.441406 416.878906 172.78125 422.382812 163.984375 424.613281 C 165.234375 418.640625 168.046875 412.90625 171.855469 408.4375 C 172.804688 407.320312 175.660156 405.445312 176.984375 404.53125 Z M 321.589844 385.972656 C 323.25 383.148438 325.261719 380.429688 327.507812 377.960938 C 326.277344 381.253906 324.203125 383.945312 321.589844 385.972656 Z M 431.070312 362.96875 C 430.917969 362.847656 430.914062 362.8125 431.070312 362.96875 Z M 431.070312 362.96875 " fill-opacity="1" fill-rule="nonzero"/><path fill="#ffffff" d="M 737.574219 440.660156 C 728.117188 441.664062 718.582031 442.78125 709.035156 444.085938 C 715.863281 410.777344 723.371094 377.523438 721.5 343.105469 C 721.035156 334.480469 705.242188 339.578125 703.53125 345.527344 C 694.027344 378.511719 691.191406 413.535156 685.621094 447.71875 C 664.082031 451.507812 642.777344 456.648438 622.523438 464.160156 C 610.613281 468.582031 617.996094 482.042969 628.921875 478.570312 C 645.96875 473.15625 663.507812 470.550781 681.082031 468.1875 C 680.128906 472.007812 679.191406 475.832031 678.304688 479.652344 C 677.25 484.179688 676.359375 488.675781 675.5625 493.15625 C 671.644531 506.078125 666.660156 518.675781 660.011719 530.757812 C 653.15625 543.21875 643.585938 556.019531 632.632812 565.210938 C 632.121094 565.640625 631.707031 565.96875 631.328125 566.257812 C 630.003906 564.089844 629.339844 561.457031 628.640625 559.085938 C 623.761719 542.53125 623.089844 523.898438 612.046875 509.789062 C 608.660156 505.464844 601.480469 506.210938 597.421875 509.101562 C 580.015625 521.511719 569.15625 538.949219 558.796875 556.878906 C 561.679688 540.925781 564.328125 524.949219 564.96875 508.648438 C 565.144531 504.175781 557.441406 505.695312 556.492188 509.039062 C 551.558594 526.460938 542.203125 542.574219 532.792969 557.941406 C 523.535156 573.066406 508.828125 597.789062 490.699219 603.617188 C 479.015625 607.371094 474.359375 598.011719 472.90625 587.628906 C 497.164062 571.574219 516.210938 543.714844 507.960938 516.273438 C 506.660156 511.957031 501.390625 511.4375 497.644531 512.207031 C 472.878906 517.285156 450.230469 558.011719 451.746094 587.78125 C 447.980469 589.875 444.195312 591.640625 440.507812 593.035156 C 439.488281 592.792969 438.496094 592.417969 437.5625 591.84375 C 432.019531 588.460938 428.863281 581.324219 426.527344 575.578125 C 421.269531 562.636719 419.007812 548.679688 414.214844 535.566406 C 412.332031 530.417969 403.445312 530.933594 400.511719 534.910156 C 389.464844 549.898438 381.945312 567.175781 371.359375 582.382812 C 365.203125 563.023438 367.980469 540.316406 359.949219 521.269531 C 358.800781 518.546875 356.011719 517.089844 353.011719 517.445312 C 338.894531 519.136719 329.25 526.894531 322.074219 537.339844 C 320.660156 527.941406 317 519.65625 309.097656 514.082031 C 291.710938 501.816406 272.6875 510.285156 254.628906 520.371094 C 252.234375 519.515625 249.667969 519 246.914062 518.949219 C 240.628906 518.832031 235.066406 520.742188 230.195312 523.867188 C 230.320312 522.691406 230.4375 521.519531 230.589844 520.355469 C 231.742188 511.671875 215.714844 513.21875 213.28125 519.394531 C 202.605469 546.453125 193.449219 579.179688 172.167969 600.304688 C 162.472656 573.394531 172.140625 541.125 163.496094 513.507812 C 161.039062 505.65625 148.4375 507.253906 144.136719 512.453125 C 129.925781 529.628906 122.53125 550.160156 114.832031 570.53125 C 115.269531 558.671875 115.277344 546.792969 114.074219 534.828125 C 112.792969 522.0625 109.945312 506.746094 100.058594 497.628906 C 89.90625 488.277344 74.097656 489.222656 62.445312 495.140625 C 55.421875 498.714844 49.726562 503.890625 45.054688 510.0625 C 41.5625 482.992188 34.507812 456.117188 19.820312 433.347656 C 17.503906 429.753906 8.375 432.855469 10.75 437.273438 C 27.609375 468.667969 29.722656 507.175781 30.101562 542.347656 C 27.058594 553.035156 25.132812 563.933594 23.609375 573.523438 C 19.238281 601.007812 16.289062 633.46875 23.085938 660.867188 C 25.472656 670.5 44.886719 667.101562 45.519531 657.882812 C 47.652344 626.816406 48.984375 595.640625 48.464844 564.492188 C 51.609375 544.894531 57.324219 524.285156 70.695312 511.09375 C 86.34375 495.65625 90.855469 542.113281 91.332031 549.667969 C 92.886719 574.257812 89.089844 598.601562 88.882812 623.125 C 88.796875 633.679688 105.3125 633.386719 110.304688 626.621094 C 128.378906 602.121094 134.070312 571.523438 146.59375 544.425781 C 147.738281 570.207031 142.664062 596.6875 156.863281 620.132812 C 160.328125 625.859375 169.773438 623.984375 174.261719 621.015625 C 192.386719 609.015625 202.652344 591.398438 210.648438 572.328125 C 212.9375 601.023438 222.441406 626.867188 250.085938 611.070312 C 260.675781 605.019531 269.691406 590.4375 273.738281 579.40625 C 278.453125 566.574219 277.277344 551.492188 272.253906 538.929688 C 270.917969 535.589844 269.152344 532.429688 266.992188 529.644531 C 276.128906 524.480469 287.242188 519.589844 296 525.601562 C 304.28125 531.289062 303.027344 546.484375 302.582031 554.984375 C 301.925781 567.4375 299.730469 579.761719 299.476562 592.246094 C 299.277344 601.875 315.878906 600.632812 318.757812 593.355469 C 323.574219 581.195312 326.582031 568.480469 330.953125 556.167969 C 334.109375 547.289062 338.464844 535.878906 346.894531 530.804688 C 355.433594 552.945312 349.753906 578.460938 361.292969 599.875 C 363.902344 604.722656 372.457031 602.132812 375.332031 599.195312 C 387.945312 586.316406 395.339844 569.980469 403.957031 554.394531 C 407.242188 567.144531 409.636719 580.140625 416.472656 591.730469 C 425.371094 606.816406 441 607.5625 454.511719 601.273438 C 458.34375 610.84375 466.25 617.6875 479.492188 619.167969 C 505.972656 622.132812 525.207031 596.839844 536.828125 576.660156 C 539.160156 572.609375 541.308594 568.445312 543.378906 564.234375 C 540.617188 574.300781 537.925781 584.378906 535.75 594.578125 C 534.082031 602.4375 547.902344 600.515625 550.953125 596.921875 C 569.480469 575.046875 579.085938 545.84375 599.78125 526 C 606.371094 541.007812 605.367188 558.914062 612.917969 573.652344 C 625.480469 598.183594 655.066406 565.96875 663.488281 555.628906 C 666.40625 552.050781 669.101562 548.382812 671.609375 544.644531 C 671.617188 545.199219 671.613281 545.738281 671.625 546.292969 C 672.042969 564.179688 672.03125 587.917969 685.144531 601.792969 C 704.472656 622.234375 729.714844 595.894531 739.222656 579.738281 C 746.722656 566.992188 722.167969 565.992188 715.964844 573.175781 C 713.40625 576.136719 710.816406 579.070312 707.894531 581.660156 C 706.972656 579.9375 706.371094 578.21875 705.660156 576.109375 C 700.179688 559.800781 699.386719 541.457031 699.078125 524.386719 C 698.710938 504.285156 701.359375 484.535156 704.960938 464.886719 C 716.160156 463.183594 727.289062 461.113281 738.222656 457.996094 C 749.570312 454.757812 752.050781 439.113281 737.574219 440.660156 Z M 246.164062 591.070312 C 244.117188 593.847656 241.835938 596.550781 239.203125 598.804688 C 232 591.4375 231.4375 572.792969 230.511719 563.953125 C 230.066406 559.667969 229.738281 555.332031 229.527344 550.976562 C 236.75 548.234375 243.367188 544.144531 249.914062 539.992188 C 254.777344 546.46875 256.828125 555.167969 256.871094 563.070312 C 256.933594 573.886719 252.425781 582.574219 246.164062 591.070312 Z M 473.003906 569.898438 C 474.75 558.519531 480.953125 538.183594 491.917969 528.914062 C 493.421875 544.914062 484.882812 560.179688 472.714844 572.152344 C 472.804688 571.347656 472.898438 570.589844 473.003906 569.898438 Z M 630.304688 567.019531 C 628.941406 567.945312 629.375 567.25 630.304688 567.019531 Z M 710.492188 585.421875 C 710.628906 585.523438 710.632812 585.558594 710.492188 585.421875 Z M 710.492188 585.421875 " fill-opacity="1" fill-rule="nonzero"/><path fill="#ffffff" d="M 28.777344 325.121094 C 29.503906 325.078125 30.222656 324.984375 30.941406 324.914062 C 30.976562 325.46875 30.980469 326.015625 31.023438 326.578125 C 32.613281 346.242188 39.542969 365.523438 57.382812 375.558594 C 72.324219 383.960938 92.414062 379.066406 106.738281 371.96875 C 131.039062 359.925781 150.085938 337.652344 161.488281 313.371094 C 167.113281 301.394531 171.082031 288.917969 174.359375 276.230469 C 175.125 288.996094 176.269531 301.734375 177.699219 314.414062 C 178.792969 324.128906 195.25 319.003906 198.347656 313.582031 C 210.675781 292.027344 216.117188 267.128906 223.269531 243.566406 C 229.589844 222.738281 237.480469 200.308594 253.449219 185.136719 C 264.511719 206.914062 257.726562 236.617188 260.082031 259.894531 C 261.390625 272.871094 266.238281 285.949219 275.667969 295.203125 C 281.351562 300.78125 286.457031 304.605469 294.597656 301.558594 C 300.5 299.34375 305.945312 296.285156 311.0625 292.613281 C 333.933594 276.222656 346.40625 247.878906 355.714844 222.324219 C 359.722656 211.320312 363.105469 200.144531 366.289062 188.914062 C 368.234375 208.84375 370.300781 228.773438 370.625 248.84375 C 370.664062 251.300781 370.734375 254.367188 370.777344 257.84375 C 349.925781 280.5 330.515625 308.195312 332.148438 339.898438 C 332.3125 343.054688 336.972656 343.761719 339.222656 343.800781 C 381.039062 344.59375 386.039062 294.042969 386.652344 262.90625 C 386.683594 261.515625 386.675781 260.128906 386.6875 258.738281 C 389.332031 255.9375 391.96875 253.222656 394.542969 250.609375 C 412.191406 232.695312 431.652344 216.8125 450.65625 200.410156 C 442.585938 229.160156 438.585938 270.605469 469.222656 268.597656 C 494.136719 266.964844 513.40625 240.476562 513.917969 217.160156 C 514.25 202.074219 507.964844 187.554688 497.207031 178.605469 C 512.109375 174.808594 526.792969 170.003906 541.957031 167.449219 C 539.15625 194.472656 537.046875 236.476562 573.992188 232.8125 C 590.707031 231.15625 600.582031 215.746094 608.015625 202.296875 C 607.386719 220.695312 607.902344 239.144531 608.375 257.824219 C 608.546875 264.507812 608.617188 271.082031 608.53125 277.609375 C 579.925781 301.59375 548.574219 338.097656 565.695312 377.601562 C 570.066406 387.6875 578.636719 400.585938 591.203125 395.515625 C 603.246094 390.652344 608.667969 376.4375 612.386719 365.050781 C 621.488281 337.164062 626.164062 308.394531 627.375 279.316406 C 657.402344 255.605469 691.550781 238.324219 722.855469 216.464844 C 732.4375 209.777344 718.71875 203.332031 711.734375 208.203125 C 684.261719 227.386719 654.855469 243.277344 627.699219 262.785156 C 627.695312 262.363281 627.707031 261.9375 627.703125 261.515625 C 627.5 225.332031 625.035156 188.449219 631.613281 152.671875 C 633.382812 143.042969 616.941406 146.625 613.785156 151.675781 C 607.527344 161.691406 603.644531 173.3125 598.871094 184.070312 C 593.445312 196.292969 587.292969 212.261719 575.824219 220.089844 C 564.304688 227.945312 558.695312 205.125 557.871094 198.886719 C 556.179688 186.015625 558.3125 172.601562 559.789062 159.808594 C 560.257812 155.742188 555.675781 153.667969 552.207031 154.019531 C 525.660156 156.691406 500.714844 168.679688 474.097656 169.632812 C 472.53125 169.5625 470.933594 169.578125 469.308594 169.691406 C 463.953125 170.070312 460.132812 173.773438 459.269531 177.296875 C 435.464844 199.371094 409.796875 219.269531 386.457031 241.839844 C 385.925781 226.308594 384.625 210.792969 383.15625 195.351562 C 381.507812 178.070312 378.601562 160.621094 379.027344 143.21875 C 379.207031 135.5625 365.5625 136.484375 363.425781 142.382812 C 353.839844 168.835938 346.429688 196.019531 335.945312 222.15625 C 327.09375 244.214844 315.175781 272.8125 293.429688 285.597656 C 262.777344 255.480469 294.773438 200.742188 266.734375 167.753906 C 262.527344 162.804688 255.390625 163.945312 250.390625 166.949219 C 214.292969 188.664062 206.332031 229.195312 195.097656 267.402344 C 193.453125 239.304688 194.066406 211.097656 199.582031 183.46875 C 201.859375 172.089844 181.390625 175.140625 177.757812 182.148438 C 151.410156 233.027344 156.523438 297.265625 114.570312 340.15625 C 105.605469 349.324219 90.941406 361.464844 77.820312 359.535156 C 61.078125 357.066406 57.945312 330.796875 56.894531 316.550781 C 66.882812 311.15625 76.007812 303.851562 84.140625 296.351562 C 99.652344 282.046875 115.90625 260.265625 114.648438 238.019531 C 113.894531 224.648438 108.007812 205.652344 91.328125 206.558594 C 76.003906 207.394531 66.527344 219.96875 58.964844 231.875 C 49.316406 247.078125 42.894531 264.742188 37.503906 281.832031 C 33.6875 293.949219 31.039062 305.328125 30.792969 317.527344 C 30.0625 317.6875 29.335938 317.863281 28.589844 317.980469 C 23.265625 318.820312 22.785156 325.476562 28.777344 325.121094 Z M 585.453125 387.441406 C 584.367188 388.3125 583.578125 386.679688 586.027344 386.855469 C 585.839844 387.058594 585.660156 387.273438 585.453125 387.441406 Z M 595.085938 363.90625 C 593.242188 370.242188 591.234375 376.808594 588.453125 382.804688 C 587.953125 383.886719 587.34375 385.167969 586.566406 386.226562 C 586.046875 385.71875 585.589844 385.132812 585.195312 384.664062 C 560.488281 355.128906 584.101562 320.035156 607.691406 296.613281 C 607.199219 302.988281 606.484375 309.371094 605.421875 315.816406 C 602.753906 331.992188 599.65625 348.152344 595.085938 363.90625 Z M 493.253906 223.039062 C 492.496094 232.507812 488.082031 240.71875 480.992188 246.902344 C 479.742188 247.992188 471.621094 255.238281 469.9375 254.183594 C 461.332031 248.785156 463.128906 229.105469 463.597656 220.859375 C 464.277344 208.859375 466.070312 195.476562 470.941406 184.152344 C 487.773438 187.003906 494.480469 207.660156 493.253906 223.039062 Z M 348.023438 331.226562 C 348.390625 311.585938 358.113281 293.5 370.453125 277.523438 C 369.285156 299.957031 364.59375 325.78125 348.023438 331.226562 Z M 66.191406 273.054688 C 71.558594 257.714844 78.003906 241.050781 87.925781 228.007812 C 88.070312 227.816406 88.226562 227.640625 88.375 227.453125 C 91.199219 232.675781 92.507812 241.25 92.535156 245.660156 C 92.691406 267.914062 74.226562 289.546875 57.46875 303.203125 C 59.171875 293.273438 63.148438 281.75 66.191406 273.054688 Z M 66.191406 273.054688 " fill-opacity="1" fill-rule="nonzero"/><path fill="#ffffff" d="M 350 125.511719 C 354.96875 127.605469 360.859375 127.074219 365.707031 124.914062 C 366.324219 124.640625 366.941406 124.367188 367.5625 124.09375 C 371.417969 122.402344 375.28125 119.023438 375.898438 114.621094 C 376.511719 110.234375 373.527344 107.265625 369.914062 105.492188 C 369.347656 105.210938 368.777344 104.929688 368.207031 104.648438 C 363.515625 102.316406 357.09375 103.175781 352.503906 105.246094 C 348.328125 107.128906 344.175781 110.742188 343.515625 115.546875 C 342.886719 120.113281 346 123.820312 350 125.511719 Z M 350 125.511719 " fill-opacity="1" fill-rule="nonzero"/><path fill="#ffffff" d="M 602.511719 660.648438 C 456.617188 645.832031 309.710938 648.203125 164.050781 664.738281 C 159.386719 665.269531 157.152344 671.484375 163.027344 670.816406 C 307.265625 654.441406 453.097656 656.726562 597.492188 670.164062 C 603.921875 670.757812 611.636719 661.570312 602.511719 660.648438 Z M 602.511719 660.648438 " fill-opacity="1" fill-rule="nonzero"/><path fill="#ffffff" d="M 541.203125 695.480469 C 443.800781 680.199219 344.242188 670.234375 246.125 684.859375 C 243.1875 685.296875 242.886719 689.0625 246.214844 688.757812 C 342.847656 679.769531 439.886719 692.917969 535.449219 706.488281 C 542.9375 707.554688 551.636719 697.121094 541.203125 695.480469 Z M 541.203125 695.480469 " fill-opacity="1" fill-rule="nonzero"/><g clip-path="url(#95aa3ab228)"><path fill="#ffffff" d="M 796.195312 575.261719 C 792.269531 572.078125 787.242188 571.011719 782.304688 571.011719 C 772.84375 571.011719 760.84375 577.265625 759.550781 587.597656 C 759 592.023438 760.945312 596.214844 764.359375 598.988281 C 768.285156 602.171875 773.3125 603.238281 778.253906 603.238281 C 787.710938 603.238281 799.710938 596.984375 801.003906 586.652344 C 801.554688 582.226562 799.613281 578.03125 796.195312 575.261719 Z M 796.195312 575.261719 " fill-opacity="1" fill-rule="nonzero"/></g></svg>