<svg xmlns="http://www.w3.org/2000/svg" xmlns:xlink="http://www.w3.org/1999/xlink" width="500" zoomAndPan="magnify" viewBox="0 0 375 374.999991" height="500" preserveAspectRatio="xMidYMid meet" version="1.0"><defs><g/></defs><g fill="#ffffff" fill-opacity="1"><g transform="translate(19.626356, 286.64981)"><g><path d="M 65.078125 5.96875 C 64.722656 5.738281 64.359375 5.113281 63.984375 4.09375 C 63.609375 3.070312 63.375 2.03125 63.28125 0.96875 C 63.039062 -1.632812 63.90625 -4.875 65.875 -8.75 C 66.1875 -9.445312 66.472656 -10.09375 66.734375 -10.6875 C 66.992188 -11.28125 67.164062 -11.753906 67.25 -12.109375 C 67.476562 -12.460938 67.664062 -12.847656 67.8125 -13.265625 C 67.957031 -13.679688 68.140625 -14.078125 68.359375 -14.453125 L 71.453125 -20.765625 L 75.046875 -27.859375 L 76.3125 -30.734375 L 77.140625 -32.3125 L 80.703125 -39.640625 L 84.078125 -46.71875 L 88.34375 -55.140625 L 89.453125 -57.5 L 90.109375 -58.828125 L 91.296875 -60.953125 L 93.078125 -63.453125 L 96.34375 -70.046875 L 98.078125 -73.921875 L 100.421875 -78.1875 C 100.285156 -78.789062 101.09375 -80.457031 102.84375 -83.1875 L 105.515625 -88.203125 L 106.8125 -90.84375 L 108.625 -94.296875 L 109.28125 -95.609375 L 112.984375 -102.265625 L 125.71875 -124.5 L 100.453125 -117.828125 L 96.578125 -116.28125 L 84.453125 -94.40625 L 80.21875 -86.90625 L 75.875 -78.921875 L 73.046875 -73.625 L 66.421875 -60.921875 L 61.9375 -51.484375 L 60.671875 -48.640625 C 60.460938 -48.128906 60.195312 -47.523438 59.875 -46.828125 C 59.5625 -46.140625 59.296875 -45.609375 59.078125 -45.234375 C 58.847656 -44.878906 58.359375 -43.878906 57.609375 -42.234375 C 56.867188 -40.597656 56.085938 -38.820312 55.265625 -36.90625 L 50.5 -26.5 C 49.695312 -24.445312 48.957031 -22.453125 48.28125 -20.515625 C 47.613281 -18.578125 47.273438 -17.285156 47.265625 -16.640625 C 47.203125 -16.160156 47.351562 -15.8125 47.71875 -15.59375 C 48.195312 -15.53125 48.265625 -15.226562 47.921875 -14.6875 C 47.484375 -13.8125 46.851562 -13.632812 46.03125 -14.15625 C 45.21875 -14.6875 44.757812 -15.5625 44.65625 -16.78125 C 44.53125 -18 44.832031 -19.625 45.5625 -21.65625 C 46.289062 -23.695312 47.335938 -26.59375 48.703125 -30.34375 C 49.554688 -32.238281 50.242188 -33.945312 50.765625 -35.46875 C 51.296875 -36.988281 51.546875 -37.828125 51.515625 -37.984375 C 51.671875 -38.628906 51.90625 -38.988281 52.21875 -39.0625 L 53.03125 -40.640625 L 53.421875 -42.140625 L 54.234375 -43.71875 L 55.71875 -46.609375 C 56.207031 -47.984375 56.785156 -49.289062 57.453125 -50.53125 C 58.128906 -51.769531 59.515625 -54.726562 61.609375 -59.40625 L 64.8125 -66.203125 C 65.570312 -67.773438 66.578125 -69.789062 67.828125 -72.25 C 69.085938 -74.71875 70.332031 -77.0625 71.5625 -79.28125 C 72.800781 -81.5 73.65625 -82.976562 74.125 -83.71875 C 74.769531 -84.320312 75.015625 -84.992188 74.859375 -85.734375 C 75.085938 -86.117188 75.203125 -86.3125 75.203125 -86.3125 C 75.492188 -86.375 75.835938 -86.757812 76.234375 -87.46875 C 76.628906 -88.175781 77.390625 -89.507812 78.515625 -91.46875 L 79.890625 -93.875 C 80.335938 -94.601562 80.972656 -95.757812 81.796875 -97.34375 C 82.628906 -98.9375 83.394531 -100.472656 84.09375 -101.953125 C 84.789062 -103.429688 85.203125 -104.265625 85.328125 -104.453125 L 87.4375 -108.65625 L 90.625 -114.515625 L 73.9375 -109.21875 C 65.675781 -106.320312 58.28125 -103.695312 51.75 -101.34375 C 45.226562 -98.988281 41.390625 -97.601562 40.234375 -97.1875 C 39.628906 -97.0625 38.03125 -96.476562 35.4375 -95.4375 C 32.851562 -94.40625 30.679688 -93.613281 28.921875 -93.0625 C 28.503906 -92.832031 27.6875 -92.46875 26.46875 -91.96875 C 25.257812 -91.46875 24.09375 -90.929688 22.96875 -90.359375 C 20.707031 -89.253906 18.984375 -88.570312 17.796875 -88.3125 C 16.835938 -87.632812 15.96875 -87.285156 15.1875 -87.265625 C 14.40625 -87.253906 14 -87.328125 13.96875 -87.484375 C 13.632812 -88.347656 14.878906 -89.28125 17.703125 -90.28125 C 20.535156 -91.289062 26.050781 -93.394531 34.25 -96.59375 L 39.65625 -98.71875 L 55.5 -104.5 C 56.675781 -104.914062 59.078125 -105.753906 62.703125 -107.015625 C 66.335938 -108.273438 69.597656 -109.457031 72.484375 -110.5625 C 71.171875 -110.113281 71.019531 -110.078125 72.03125 -110.453125 C 73.039062 -110.828125 74.71875 -111.390625 77.0625 -112.140625 C 79.40625 -112.890625 81.960938 -113.71875 84.734375 -114.625 C 87.503906 -115.539062 89.976562 -116.390625 92.15625 -117.171875 L 92.265625 -117.6875 L 98.265625 -127.90625 C 98.835938 -128.800781 99.378906 -129.695312 99.890625 -130.59375 C 100.398438 -131.5 100.71875 -132.046875 100.84375 -132.234375 L 101.65625 -133.796875 C 101.5625 -134.242188 101.660156 -134.503906 101.953125 -134.578125 C 101.953125 -134.578125 102.101562 -134.765625 102.40625 -135.140625 C 102.71875 -135.515625 102.976562 -135.960938 103.1875 -136.484375 L 106.765625 -142.640625 L 110.859375 -149.65625 L 112.4375 -152.109375 L 119.734375 -163.78125 L 123.578125 -169.78125 C 124.054688 -170.5 124.101562 -170.984375 123.71875 -171.234375 C 123.6875 -171.367188 123.75 -171.453125 123.90625 -171.484375 C 124.269531 -171.253906 124.785156 -171.765625 125.453125 -173.015625 L 130.125 -180.578125 L 132.65625 -185.125 L 134.9375 -188.671875 L 135.703125 -190.484375 C 136.117188 -191.515625 136.398438 -192.046875 136.546875 -192.078125 C 136.992188 -192.171875 137.328125 -192.785156 137.546875 -193.921875 L 138.859375 -196.5625 C 139.078125 -196.914062 139.207031 -197.175781 139.25 -197.34375 C 139.300781 -197.519531 139.328125 -197.609375 139.328125 -197.609375 C 139.398438 -197.929688 139.488281 -198.222656 139.59375 -198.484375 C 139.695312 -198.742188 139.734375 -198.953125 139.703125 -199.109375 C 138.679688 -198.722656 137.753906 -198.28125 136.921875 -197.78125 C 136.097656 -197.28125 135.195312 -196.769531 134.21875 -196.25 C 134.039062 -196.375 133.015625 -196.234375 131.140625 -195.828125 C 129.273438 -195.421875 127.203125 -194.882812 124.921875 -194.21875 C 122.648438 -193.5625 120.722656 -192.910156 119.140625 -192.265625 L 114.5 -191 L 107.03125 -188.671875 C 102.769531 -187.429688 100.296875 -186.582031 99.609375 -186.125 L 97.875 -185.5 C 95.820312 -184.894531 93.738281 -184.242188 91.625 -183.546875 C 89.507812 -182.847656 88.296875 -182.46875 87.984375 -182.40625 C 87.878906 -182.238281 87.523438 -182.085938 86.921875 -181.953125 C 86.316406 -181.828125 85.722656 -181.695312 85.140625 -181.5625 C 83.796875 -181.269531 82.859375 -180.898438 82.328125 -180.453125 C 82.171875 -180.421875 81.515625 -180.203125 80.359375 -179.796875 C 79.203125 -179.390625 77.816406 -178.929688 76.203125 -178.421875 L 67.734375 -175.40625 L 63.125 -173.9375 L 53.390625 -170.171875 L 47.140625 -167.640625 C 46.867188 -167.421875 46.265625 -167.128906 45.328125 -166.765625 C 44.398438 -166.410156 42.722656 -165.65625 40.296875 -164.5 L 34.0625 -161.96875 C 33.507812 -161.6875 32.945312 -161.40625 32.375 -161.125 C 31.800781 -160.851562 31.460938 -160.625 31.359375 -160.4375 C 31.359375 -160.4375 31.113281 -160.304688 30.625 -160.046875 C 30.132812 -159.785156 29.535156 -159.492188 28.828125 -159.171875 L 26.28125 -157.921875 L 25.1875 -157.46875 L 22.265625 -155.875 L 17.90625 -153.28125 C 16.78125 -152.726562 15.742188 -152.113281 14.796875 -151.4375 C 13.859375 -150.757812 13.039062 -150.191406 12.34375 -149.734375 C 11.820312 -149.296875 11.484375 -149.0625 11.328125 -149.03125 C 11.171875 -148.988281 10.457031 -148.476562 9.1875 -147.5 C 7.925781 -146.519531 6.734375 -145.554688 5.609375 -144.609375 C 4.484375 -143.660156 3.867188 -143.101562 3.765625 -142.9375 L 1.515625 -140.328125 C 0.472656 -139.304688 -0.351562 -138.414062 -0.96875 -137.65625 C -1.582031 -136.90625 -2.128906 -135.851562 -2.609375 -134.5 C -2.921875 -133.800781 -3.054688 -132.632812 -3.015625 -131 C -2.972656 -129.375 -2.742188 -127.984375 -2.328125 -126.828125 L -1.359375 -124.46875 C -0.640625 -122.582031 0.273438 -120.90625 1.390625 -119.4375 C 2.066406 -118.476562 2.363281 -117.796875 2.28125 -117.390625 C 2.207031 -116.992188 1.722656 -117.082031 0.828125 -117.65625 C -0.617188 -118.582031 -1.773438 -120.289062 -2.640625 -122.78125 C -2.898438 -123.96875 -3.210938 -124.675781 -3.578125 -124.90625 C -3.765625 -125.03125 -4.003906 -125.765625 -4.296875 -127.109375 C -4.585938 -128.453125 -4.773438 -129.851562 -4.859375 -131.3125 C -4.941406 -132.78125 -4.863281 -133.695312 -4.625 -134.0625 C -4.550781 -134.382812 -4.46875 -134.710938 -4.375 -135.046875 C -4.28125 -135.390625 -4.203125 -135.722656 -4.140625 -136.046875 L -3.34375 -137.859375 C -3.050781 -137.929688 -2.550781 -138.507812 -1.84375 -139.59375 C -1.375 -140.3125 -0.691406 -141.117188 0.203125 -142.015625 C 1.097656 -142.921875 1.613281 -143.390625 1.75 -143.421875 L 3.65625 -145.484375 C 4.425781 -146.285156 5.472656 -147.21875 6.796875 -148.28125 C 8.128906 -149.34375 8.953125 -149.910156 9.265625 -149.984375 L 10.890625 -151.046875 C 13.023438 -152.773438 14.382812 -153.703125 14.96875 -153.828125 C 15.570312 -153.960938 15.9375 -154.113281 16.0625 -154.28125 L 18.3125 -155.71875 L 22.734375 -158.09375 C 23.398438 -158.539062 24.203125 -158.945312 25.140625 -159.3125 C 26.085938 -159.675781 26.835938 -159.992188 27.390625 -160.265625 C 27.960938 -160.554688 28.535156 -160.800781 29.109375 -161 C 29.691406 -161.207031 30.046875 -161.398438 30.171875 -161.578125 C 30.429688 -161.796875 31.273438 -162.21875 32.703125 -162.84375 C 34.140625 -163.46875 35.773438 -164.21875 37.609375 -165.09375 L 45.046875 -168.59375 L 47.234375 -169.296875 L 52.1875 -171.3125 L 61.96875 -174.859375 L 69.125 -177.578125 L 98.828125 -187.578125 C 100.328125 -187.898438 101.332031 -188.285156 101.84375 -188.734375 C 102.125 -188.929688 102.597656 -189.101562 103.265625 -189.25 C 103.941406 -189.394531 104.648438 -189.550781 105.390625 -189.71875 C 106.890625 -190.039062 108.648438 -190.585938 110.671875 -191.359375 L 121.84375 -194.953125 L 136.375 -199.296875 C 137.257812 -199.484375 138.238281 -200.015625 139.3125 -200.890625 C 140.40625 -201.585938 141.195312 -202.066406 141.6875 -202.328125 C 142.1875 -202.585938 142.710938 -202.863281 143.265625 -203.15625 C 143.578125 -203.21875 143.832031 -203.3125 144.03125 -203.4375 C 144.238281 -203.570312 144.410156 -203.65625 144.546875 -203.6875 C 144.671875 -203.851562 145.179688 -204.035156 146.078125 -204.234375 C 147.804688 -204.921875 148.976562 -204.9375 149.59375 -204.28125 C 149.914062 -204.21875 149.941406 -203.921875 149.671875 -203.390625 C 149.398438 -202.859375 148.925781 -202.351562 148.25 -201.875 C 147.675781 -201.613281 146.765625 -200.910156 145.515625 -199.765625 C 144.273438 -198.628906 143.671875 -197.992188 143.703125 -197.859375 C 143.742188 -197.703125 143.363281 -196.988281 142.5625 -195.71875 C 141.851562 -194.625 141.535156 -193.929688 141.609375 -193.640625 C 141.671875 -193.347656 141.546875 -193.171875 141.234375 -193.109375 C 140.941406 -193.035156 140.726562 -192.585938 140.59375 -191.765625 C 140.476562 -190.804688 140.097656 -190.023438 139.453125 -189.421875 L 138.765625 -188.34375 C 138.796875 -188.1875 138.519531 -187.648438 137.9375 -186.734375 C 137.351562 -185.828125 136.664062 -184.664062 135.875 -183.25 L 127.375 -169.65625 C 125.84375 -167.289062 125.113281 -165.960938 125.1875 -165.671875 C 125.1875 -165.671875 125.160156 -165.585938 125.109375 -165.421875 C 125.066406 -165.265625 124.976562 -165.171875 124.84375 -165.140625 C 124.59375 -164.765625 123.941406 -163.757812 122.890625 -162.125 C 121.847656 -160.488281 120.722656 -158.675781 119.515625 -156.6875 C 118.316406 -154.707031 117.25 -152.988281 116.3125 -151.53125 C 115.375 -150.070312 114.921875 -149.273438 114.953125 -149.140625 L 113.09375 -145.921875 C 112.613281 -145.179688 112.175781 -144.457031 111.78125 -143.75 C 111.382812 -143.039062 111.1875 -142.6875 111.1875 -142.6875 C 111.257812 -142.375 110.910156 -141.832031 110.140625 -141.0625 L 106.046875 -134.078125 C 105.296875 -132.503906 104.546875 -131.082031 103.796875 -129.8125 C 103.054688 -128.550781 102.578125 -127.742188 102.359375 -127.390625 L 101.296875 -125.75 C 100.660156 -124.363281 99.960938 -123.078125 99.203125 -121.890625 C 98.441406 -120.710938 97.90625 -119.769531 97.59375 -119.0625 L 127.25 -127.1875 C 127.71875 -127.925781 128.269531 -128.789062 128.90625 -129.78125 C 129.550781 -130.78125 129.742188 -131.171875 129.484375 -130.953125 C 129.941406 -131.691406 130.15625 -132.140625 130.125 -132.296875 C 130.0625 -132.585938 130.179688 -132.765625 130.484375 -132.828125 C 130.484375 -132.828125 130.722656 -133.15625 131.203125 -133.8125 C 131.679688 -134.46875 132.140625 -135.226562 132.578125 -136.09375 L 134.96875 -140.140625 C 135.800781 -141.410156 136.597656 -142.796875 137.359375 -144.296875 C 138.117188 -145.796875 138.40625 -146.597656 138.21875 -146.703125 C 138.1875 -146.847656 138.25 -146.941406 138.40625 -146.984375 C 138.59375 -146.867188 139.164062 -147.460938 140.125 -148.765625 C 141.09375 -150.078125 141.660156 -151.054688 141.828125 -151.703125 L 143.046875 -153.625 C 143.554688 -154.195312 143.960938 -154.867188 144.265625 -155.640625 C 144.566406 -156.410156 145.257812 -157.851562 146.34375 -159.96875 C 146.59375 -160.332031 146.820312 -160.734375 147.03125 -161.171875 C 147.238281 -161.617188 147.40625 -161.925781 147.53125 -162.09375 C 148.070312 -162.539062 149.015625 -163.960938 150.359375 -166.359375 C 151.710938 -168.765625 153.0625 -171.207031 154.40625 -173.6875 L 156.75 -177.9375 L 158.328125 -180.390625 L 161.90625 -186.59375 C 162.445312 -187.644531 163.097656 -188.914062 163.859375 -190.40625 C 164.628906 -191.90625 165.21875 -193.171875 165.625 -194.203125 C 166.738281 -196.929688 167.519531 -198.347656 167.96875 -198.453125 C 168.382812 -198.703125 168.847656 -198.722656 169.359375 -198.515625 C 169.867188 -198.316406 170.160156 -198.070312 170.234375 -197.78125 C 170.296875 -196.070312 167.984375 -191.269531 163.296875 -183.375 C 160.765625 -179.207031 158.828125 -175.882812 157.484375 -173.40625 C 156.148438 -170.9375 155.050781 -168.828125 154.1875 -167.078125 C 153.050781 -165.109375 152.28125 -163.800781 151.875 -163.15625 C 151.476562 -162.519531 150.941406 -161.59375 150.265625 -160.375 L 147.5625 -155.5625 C 147.125 -154.664062 146.535156 -153.585938 145.796875 -152.328125 C 145.054688 -151.078125 144.378906 -150.070312 143.765625 -149.3125 L 142.015625 -146.609375 C 142.046875 -146.453125 141.648438 -145.738281 140.828125 -144.46875 L 137.90625 -139.625 L 136.09375 -136.15625 L 131.65625 -128.40625 L 133.46875 -128.796875 C 134.914062 -129.253906 136.453125 -129.703125 138.078125 -130.140625 C 139.710938 -130.578125 140.863281 -130.710938 141.53125 -130.546875 L 147.6875 -132.359375 L 167.4375 -136.421875 C 167.582031 -136.453125 168.273438 -136.679688 169.515625 -137.109375 C 170.753906 -137.546875 172.132812 -137.851562 173.65625 -138.03125 L 195.40625 -141.609375 C 195.40625 -141.609375 195.671875 -141.625 196.203125 -141.65625 C 196.734375 -141.6875 197.300781 -141.769531 197.90625 -141.90625 L 207.453125 -143.28125 C 211.328125 -144.132812 213.410156 -143.890625 213.703125 -142.546875 C 214.160156 -141.867188 213.921875 -141.191406 212.984375 -140.515625 L 211.296875 -139.671875 C 210.128906 -139.265625 209.460938 -139.429688 209.296875 -140.171875 C 208.878906 -140.710938 208.144531 -140.867188 207.09375 -140.640625 C 203.882812 -140.242188 200.664062 -139.925781 197.4375 -139.6875 C 194.21875 -139.457031 190.398438 -139.054688 185.984375 -138.484375 C 181.578125 -137.910156 176.015625 -136.890625 169.296875 -135.421875 C 168.734375 -135.160156 168.148438 -134.960938 167.546875 -134.828125 C 166.953125 -134.691406 166.582031 -134.609375 166.4375 -134.578125 C 166.4375 -134.578125 165.175781 -134.257812 162.65625 -133.625 C 160.132812 -133 157.53125 -132.390625 154.84375 -131.796875 C 152.15625 -131.210938 150.425781 -130.921875 149.65625 -130.921875 L 141.9375 -128.734375 C 141.414062 -128.953125 139.789062 -128.679688 137.0625 -127.921875 C 134.332031 -127.160156 131.957031 -126.410156 129.9375 -125.671875 L 129.703125 -125.609375 C 129.285156 -125.359375 128.738281 -124.457031 128.0625 -122.90625 C 127.382812 -121.363281 127.132812 -120.535156 127.3125 -120.421875 C 127.164062 -120.390625 127.035156 -120.273438 126.921875 -120.078125 C 126.648438 -119.867188 126.253906 -119.359375 125.734375 -118.546875 C 125.210938 -117.734375 124.113281 -115.804688 122.4375 -112.765625 C 120.78125 -110.222656 120.003906 -108.726562 120.109375 -108.28125 C 120.296875 -108.15625 119.9375 -107.488281 119.03125 -106.28125 C 118.125 -105.070312 117.207031 -103.738281 116.28125 -102.28125 C 115.375 -100.675781 114.222656 -98.585938 112.828125 -96.015625 C 111.429688 -93.441406 109.75 -90.226562 107.78125 -86.375 L 103.96875 -79.203125 C 103.550781 -78.179688 103.148438 -77.273438 102.765625 -76.484375 C 102.390625 -75.703125 102.222656 -75.234375 102.265625 -75.078125 C 102.160156 -74.898438 102.035156 -74.597656 101.890625 -74.171875 C 101.742188 -73.742188 101.484375 -73.335938 101.109375 -72.953125 L 99.265625 -69.5 L 97.625 -66.3125 L 93.890625 -58.703125 L 93.046875 -57.125 L 93 -57.359375 L 92 -55.484375 L 90.234375 -51.828125 C 90.003906 -51.453125 89.195312 -49.941406 87.8125 -47.296875 C 86.4375 -44.660156 84.878906 -41.585938 83.140625 -38.078125 C 81.410156 -34.566406 79.6875 -30.984375 77.96875 -27.328125 L 75.15625 -22.03125 C 74.394531 -20.457031 73.550781 -18.75 72.625 -16.90625 C 71.707031 -15.0625 70.546875 -12.34375 69.140625 -8.75 L 67.484375 -5.578125 C 67.066406 -4.710938 66.691406 -3.226562 66.359375 -1.125 C 66.035156 0.976562 65.925781 2.648438 66.03125 3.890625 C 66.125 4.953125 66.109375 5.578125 65.984375 5.765625 C 65.859375 5.953125 65.554688 6.019531 65.078125 5.96875 Z M 65.078125 5.96875 "/></g></g></g><g fill="#ffffff" fill-opacity="1"><g transform="translate(168.253131, 254.216507)"><g><path d="M -17.9375 -59.640625 L -18.859375 -60.609375 C -19.140625 -61.179688 -19.304688 -61.769531 -19.359375 -62.375 C -19.410156 -62.988281 -19.410156 -63.535156 -19.359375 -64.015625 C -19.296875 -65.128906 -18.53125 -66.820312 -17.0625 -69.09375 C -15.601562 -71.363281 -14.597656 -73.023438 -14.046875 -74.078125 C -13.441406 -74.847656 -12.953125 -75.109375 -12.578125 -74.859375 C -11.765625 -74.734375 -11.789062 -73.789062 -12.65625 -72.03125 C -13.445312 -70.613281 -14.453125 -68.753906 -15.671875 -66.453125 C -16.898438 -64.160156 -17.390625 -62.804688 -17.140625 -62.390625 C -16.710938 -61.847656 -15.90625 -62.097656 -14.71875 -63.140625 C -13.539062 -64.191406 -12.316406 -65.554688 -11.046875 -67.234375 C -9.773438 -68.921875 -8.742188 -70.472656 -7.953125 -71.890625 L -7.65625 -72.65625 L -6.609375 -74.296875 L -6.296875 -75.078125 C -5.710938 -75.972656 -5.113281 -76.414062 -4.5 -76.40625 C -3.53125 -76.289062 -3.390625 -75.492188 -4.078125 -74.015625 C -4.765625 -72.546875 -5.503906 -71.101562 -6.296875 -69.6875 C -7.597656 -67.050781 -7.851562 -65.351562 -7.0625 -64.59375 C -6.769531 -64.019531 -6.273438 -63.925781 -5.578125 -64.3125 C -4.890625 -64.695312 -4.546875 -64.890625 -4.546875 -64.890625 C -2.984375 -65.554688 -0.703125 -66.921875 2.296875 -68.984375 C 5.296875 -71.046875 9.023438 -73.65625 13.484375 -76.8125 L 13.890625 -77.140625 L 14.328125 -77.234375 L 14.828125 -77.109375 C 15.160156 -77.015625 15.3125 -76.847656 15.28125 -76.609375 C 15.257812 -76.367188 15.117188 -76.144531 14.859375 -75.9375 L 12.46875 -74 L 3.59375 -67.375 C 1.6875 -66.019531 -0.0625 -64.894531 -1.65625 -64 C -3.257812 -63.113281 -4.0625 -62.671875 -4.0625 -62.671875 L -4.734375 -62.53125 C -6.566406 -61.65625 -7.800781 -61.613281 -8.4375 -62.40625 C -9.082031 -63.207031 -9.453125 -64.140625 -9.546875 -65.203125 L -9.75 -66.109375 L -9.90625 -65.828125 L -11.1875 -64.15625 C -11.6875 -63.570312 -12.488281 -62.769531 -13.59375 -61.75 C -14.695312 -60.738281 -15.695312 -60.132812 -16.59375 -59.9375 Z M -17.9375 -59.640625 "/></g></g></g><g fill="#ffffff" fill-opacity="1"><g transform="translate(198.023227, 247.720083)"><g><path d="M 77.796875 -128.125 C 79.304688 -127.675781 79.132812 -126.695312 77.28125 -125.1875 L 75.21875 -123.828125 C 75.09375 -123.640625 74.757812 -123.71875 74.21875 -124.0625 C 73.832031 -124.445312 73.75 -124.816406 73.96875 -125.171875 C 74.1875 -125.691406 74.207031 -125.972656 74.03125 -126.015625 C 73.863281 -126.054688 73.1875 -125.945312 72 -125.6875 C 71.363281 -125.71875 70.59375 -125.671875 69.6875 -125.546875 C 68.78125 -125.421875 67.929688 -125.351562 67.140625 -125.34375 C 66.066406 -125.269531 63.523438 -124.910156 59.515625 -124.265625 C 55.515625 -123.617188 50.925781 -122.8125 45.75 -121.84375 C 40.582031 -120.875 35.519531 -119.921875 30.5625 -118.984375 C 25.601562 -118.054688 21.476562 -117.234375 18.1875 -116.515625 L 17.3125 -116.328125 C 17 -116.265625 16.492188 -116.195312 15.796875 -116.125 C 15.109375 -116.050781 14.335938 -115.84375 13.484375 -115.5 L 12.515625 -114.578125 C 12.421875 -114.253906 12.222656 -113.898438 11.921875 -113.515625 C 11.617188 -113.128906 11.367188 -112.679688 11.171875 -112.171875 L 9.59375 -109.71875 C 9.1875 -108.6875 8.625 -107.664062 7.90625 -106.65625 C 7.1875 -105.644531 6.378906 -104.335938 5.484375 -102.734375 L 2.578125 -97.875 C 1.941406 -96.488281 1.320312 -95.335938 0.71875 -94.421875 C 0.5 -94.054688 0.132812 -93.425781 -0.375 -92.53125 C -0.882812 -91.644531 -1.425781 -90.75 -2 -89.84375 C -3.46875 -87.175781 -4.582031 -85.09375 -5.34375 -83.59375 C -6.113281 -82.101562 -6.894531 -80.648438 -7.6875 -79.234375 L -9.734375 -75.734375 L -11.21875 -72.828125 L -15.796875 -64.796875 L -21.328125 -54.6875 L -23.953125 -49.640625 C -25.765625 -46.429688 -27.753906 -42.632812 -29.921875 -38.25 C -32.085938 -33.875 -34.09375 -29.648438 -35.9375 -25.578125 C -37.78125 -21.503906 -39.222656 -18.257812 -40.265625 -15.84375 C -40.742188 -14.476562 -41.1875 -12.925781 -41.59375 -11.1875 C -42.007812 -9.457031 -42.226562 -8.285156 -42.25 -7.671875 C -42.082031 -6.910156 -41.695312 -6.597656 -41.09375 -6.734375 C -40.457031 -6.722656 -40.25 -6.460938 -40.46875 -5.953125 C -40.539062 -5.609375 -41.023438 -5.335938 -41.921875 -5.140625 C -42.554688 -5.171875 -43.132812 -5.675781 -43.65625 -6.65625 C -44.007812 -7.519531 -44.023438 -9 -43.703125 -11.09375 C -43.554688 -11.914062 -43.4375 -12.648438 -43.34375 -13.296875 C -43.25 -13.941406 -43.1875 -14.1875 -43.15625 -14.03125 C -43.019531 -14.0625 -43 -14.300781 -43.09375 -14.75 C -43.09375 -14.75 -43.0625 -14.796875 -43 -14.890625 C -42.9375 -14.984375 -42.921875 -15.109375 -42.953125 -15.265625 C -42.628906 -15.171875 -42.457031 -15.441406 -42.4375 -16.078125 C -42.34375 -16.398438 -42.34375 -16.785156 -42.4375 -17.234375 L -42.53125 -17.671875 C -42.207031 -17.597656 -41.207031 -19.460938 -39.53125 -23.265625 L -33.046875 -37.59375 L -28.984375 -45.734375 C -28.097656 -47.492188 -27.300781 -49.070312 -26.59375 -50.46875 C -25.894531 -51.863281 -25.484375 -52.660156 -25.359375 -52.859375 C -25.109375 -53.078125 -24.785156 -53.539062 -24.390625 -54.25 C -23.992188 -54.957031 -23.578125 -55.742188 -23.140625 -56.609375 C -21.878906 -59.398438 -20.960938 -61.285156 -20.390625 -62.265625 C -19.828125 -63.242188 -19.46875 -63.75 -19.3125 -63.78125 C -19.175781 -63.8125 -18.960938 -64.257812 -18.671875 -65.125 L -17.34375 -67.734375 L -16.015625 -70.140625 C -14.234375 -73.503906 -12.953125 -75.890625 -12.171875 -77.296875 C -11.390625 -78.710938 -10.765625 -79.789062 -10.296875 -80.53125 C -9.359375 -81.976562 -8.910156 -82.78125 -8.953125 -82.9375 C -8.910156 -82.78125 -8.453125 -83.539062 -7.578125 -85.21875 C -6.703125 -86.90625 -6.265625 -87.75 -6.265625 -87.75 C -5.734375 -88.96875 -4.738281 -90.898438 -3.28125 -93.546875 C -1.832031 -96.203125 -0.289062 -98.960938 1.34375 -101.828125 C 2.976562 -104.691406 4.210938 -106.753906 5.046875 -108.015625 L 7.09375 -111.53125 L 7.5625 -112.578125 L 8.140625 -113.171875 C 8.210938 -113.492188 8.3125 -113.742188 8.4375 -113.921875 C 8.5625 -114.109375 8.675781 -114.289062 8.78125 -114.46875 C 6.40625 -113.945312 3.648438 -113.34375 0.515625 -112.65625 C -2.617188 -111.976562 -4.695312 -111.453125 -5.71875 -111.078125 L -13 -109.015625 L -18.984375 -107.46875 L -24.5 -105.796875 C -27.15625 -105.078125 -29.609375 -104.351562 -31.859375 -103.625 C -34.117188 -102.894531 -35.390625 -102.421875 -35.671875 -102.203125 C -37.085938 -101.585938 -38.675781 -101.003906 -40.4375 -100.453125 C -42.195312 -99.910156 -43.171875 -99.695312 -43.359375 -99.8125 C -44.253906 -100.394531 -43.726562 -101.21875 -41.78125 -102.28125 C -41.207031 -102.550781 -39.863281 -103.035156 -37.75 -103.734375 C -35.632812 -104.429688 -33.410156 -105.148438 -31.078125 -105.890625 C -28.742188 -106.640625 -26.984375 -107.144531 -25.796875 -107.40625 L -20.953125 -108.9375 L 10.453125 -116.484375 L 11.15625 -117.578125 L 12.5 -119.96875 L 13.03125 -120.78125 C 13.269531 -121.15625 13.84375 -121.945312 14.75 -123.15625 C 15.664062 -124.363281 16.53125 -125.609375 17.34375 -126.890625 C 18.15625 -128.171875 18.625 -128.894531 18.75 -129.0625 C 18.8125 -129.40625 19.710938 -130.625 21.453125 -132.71875 L 23.078125 -134.9375 C 23.160156 -135.28125 23.609375 -135.925781 24.421875 -136.875 C 25.234375 -137.832031 25.707031 -138.328125 25.84375 -138.359375 C 26.289062 -138.453125 26.640625 -138.296875 26.890625 -137.890625 C 27.304688 -137.367188 27.34375 -136.832031 27 -136.28125 L 26.375 -134.953125 L 24.515625 -132.6875 C 23.898438 -131.914062 23.085938 -130.796875 22.078125 -129.328125 C 21.078125 -127.867188 20.421875 -126.789062 20.109375 -126.09375 C 19.441406 -124.84375 18.738281 -123.75 18 -122.8125 C 17.53125 -122.082031 16.941406 -121.171875 16.234375 -120.078125 C 15.535156 -118.992188 15.085938 -118.195312 14.890625 -117.6875 L 19.125 -118.609375 L 25.46875 -119.765625 C 26.5 -119.992188 29.125 -120.488281 33.34375 -121.25 C 37.5625 -122.007812 42.226562 -122.828125 47.34375 -123.703125 C 52.46875 -124.585938 57.132812 -125.410156 61.34375 -126.171875 C 65.5625 -126.929688 68.28125 -127.367188 69.5 -127.484375 C 72.0625 -127.890625 73.914062 -128.140625 75.0625 -128.234375 C 76.21875 -128.328125 77.128906 -128.289062 77.796875 -128.125 Z M 77.796875 -128.125 "/></g></g></g><g fill="#ffffff" fill-opacity="1"><g transform="translate(217.049212, 243.568237)"><g><path d="M -8.765625 -57.421875 C -10.390625 -56.910156 -11.585938 -56.644531 -12.359375 -56.625 C -13.128906 -56.601562 -13.976562 -56.578125 -14.90625 -56.546875 C -16.46875 -56.503906 -17.710938 -57.007812 -18.640625 -58.0625 C -19.578125 -59.113281 -20.160156 -60.164062 -20.390625 -61.21875 C -20.648438 -62.40625 -20.585938 -63.550781 -20.203125 -64.65625 C -19.828125 -65.757812 -19.226562 -66.941406 -18.40625 -68.203125 C -16.769531 -70.742188 -14.953125 -72.816406 -12.953125 -74.421875 C -10.960938 -76.035156 -9.238281 -77.082031 -7.78125 -77.5625 C -7.363281 -77.8125 -6.851562 -77.800781 -6.25 -77.53125 C -5.65625 -77.269531 -5.328125 -76.992188 -5.265625 -76.703125 C -5.003906 -76.285156 -5.285156 -75.28125 -6.109375 -73.6875 C -6.941406 -72.101562 -7.566406 -71.191406 -7.984375 -70.953125 C -8.429688 -70.859375 -8.671875 -70.882812 -8.703125 -71.03125 L -9.0625 -71.65625 C -9.25 -71.769531 -9.082031 -72.425781 -8.5625 -73.625 L -7.671875 -75.015625 L -8.578125 -74.8125 C -9.597656 -74.425781 -10.960938 -73.304688 -12.671875 -71.453125 C -14.378906 -69.597656 -15.789062 -67.6875 -16.90625 -65.71875 L -17.578125 -64.40625 C -18.015625 -63.539062 -18.097656 -62.664062 -17.828125 -61.78125 C -17.554688 -60.90625 -17.304688 -60.328125 -17.078125 -60.046875 C -16.660156 -59.523438 -16.023438 -59.117188 -15.171875 -58.828125 C -14.328125 -58.546875 -12.941406 -58.617188 -11.015625 -59.046875 C -5.847656 -60.484375 -1.234375 -62.269531 2.828125 -64.40625 C 6.898438 -66.550781 10.859375 -68.816406 14.703125 -71.203125 C 14.703125 -71.203125 15.375 -71.703125 16.71875 -72.703125 C 18.070312 -73.703125 19.632812 -74.785156 21.40625 -75.953125 C 23.1875 -77.128906 24.75 -78.21875 26.09375 -79.21875 C 27.4375 -80.21875 28.109375 -80.71875 28.109375 -80.71875 C 28.523438 -80.945312 29.054688 -81.015625 29.703125 -80.921875 C 30.359375 -80.835938 29.941406 -80.242188 28.453125 -79.140625 L 27.875 -78.546875 C 25.601562 -76.804688 23.859375 -75.488281 22.640625 -74.59375 C 21.429688 -73.695312 20.269531 -72.929688 19.15625 -72.296875 C 18.039062 -71.671875 16.613281 -70.695312 14.875 -69.375 C 10.820312 -66.445312 6.597656 -63.957031 2.203125 -61.90625 C -2.191406 -59.863281 -5.847656 -58.367188 -8.765625 -57.421875 Z M -8.765625 -57.421875 "/></g></g></g><g fill="#ffffff" fill-opacity="1"><g transform="translate(260.697126, 234.043398)"><g><path d="M 53.734375 -140.703125 C 54.859375 -139.847656 54.992188 -138.472656 54.140625 -136.578125 C 53.859375 -135.722656 53.285156 -134.578125 52.421875 -133.140625 C 51.566406 -131.710938 50.878906 -130.773438 50.359375 -130.328125 L 47.53125 -127.15625 C 47.0625 -126.425781 46.40625 -125.65625 45.5625 -124.84375 C 44.726562 -124.03125 44.0625 -123.335938 43.5625 -122.765625 L 40.640625 -120.015625 C 39.878906 -119.234375 39.273438 -118.796875 38.828125 -118.703125 C 38.285156 -118.253906 37.960938 -117.945312 37.859375 -117.78125 C 37.921875 -117.46875 37.609375 -117.082031 36.921875 -116.625 L 35.671875 -115.90625 C 34.867188 -115.257812 33.507812 -114.140625 31.59375 -112.546875 C 29.675781 -110.953125 27.644531 -109.332031 25.5 -107.6875 C 23.363281 -106.050781 21.5625 -104.675781 20.09375 -103.5625 C 19.007812 -102.71875 18.242188 -102.242188 17.796875 -102.140625 C 17.347656 -102.046875 16.195312 -101.242188 14.34375 -99.734375 L 10.890625 -97.34375 C 10.765625 -97.164062 10.285156 -96.828125 9.453125 -96.328125 C 8.628906 -95.835938 7.554688 -95.054688 6.234375 -93.984375 L -1.46875 -88.34375 L -2.421875 -87.421875 L -5.390625 -82.765625 C -7.015625 -80.222656 -8.789062 -77.453125 -10.71875 -74.453125 C -12.644531 -71.453125 -13.703125 -69.625 -13.890625 -68.96875 L -13.78125 -68.515625 C -13.59375 -68.398438 -13.234375 -68.554688 -12.703125 -68.984375 C -12.566406 -69.015625 -12.503906 -69.066406 -12.515625 -69.140625 C -12.535156 -69.210938 -12.46875 -69.269531 -12.3125 -69.3125 C -11.507812 -69.945312 -10.597656 -70.609375 -9.578125 -71.296875 C -8.554688 -71.992188 -7.210938 -72.835938 -5.546875 -73.828125 C -3.335938 -75.085938 -1.945312 -75.472656 -1.375 -74.984375 C -1.144531 -74.703125 -1.304688 -74.039062 -1.859375 -73 C -3.492188 -70.445312 -4.4375 -68.675781 -4.6875 -67.6875 L -4.765625 -66.953125 C -5.171875 -65.316406 -5.226562 -64.53125 -4.9375 -64.59375 L -4.5 -64.6875 L -3.640625 -65.09375 C -2.554688 -65.800781 -0.664062 -67.148438 2.03125 -69.140625 C 4.726562 -71.140625 6.75 -72.601562 8.09375 -73.53125 L 13.171875 -77.203125 C 13.617188 -77.304688 14.070312 -77.367188 14.53125 -77.390625 C 15 -77.410156 14.789062 -76.929688 13.90625 -75.953125 C 12.65625 -75.210938 12.003906 -74.796875 11.953125 -74.703125 C 11.898438 -74.617188 11.84375 -74.53125 11.78125 -74.4375 C 11.71875 -74.351562 10.953125 -73.765625 9.484375 -72.671875 C 8.910156 -72.378906 8.476562 -72.007812 8.1875 -71.5625 C 7.90625 -71.113281 7.609375 -70.851562 7.296875 -70.78125 C 5.941406 -69.851562 5.175781 -69.253906 5 -68.984375 C 4.832031 -68.710938 4.398438 -68.347656 3.703125 -67.890625 C 3.285156 -67.640625 2.066406 -66.78125 0.046875 -65.3125 C -1.972656 -63.851562 -3.410156 -62.957031 -4.265625 -62.625 L -4.6875 -62.296875 C -5.101562 -62.035156 -5.726562 -62.050781 -6.5625 -62.34375 C -7.625 -62.90625 -7.984375 -64.164062 -7.640625 -66.125 L -7.25 -67.609375 C -7.101562 -68.410156 -6.8125 -69.25 -6.375 -70.125 C -5.945312 -71 -5.660156 -71.457031 -5.515625 -71.5 C -5.367188 -71.53125 -5.3125 -71.617188 -5.34375 -71.765625 C -5.375 -71.921875 -5.726562 -71.765625 -6.40625 -71.296875 L -8.671875 -69.875 C -9.804688 -69.300781 -10.550781 -68.75 -10.90625 -68.21875 L -12.046875 -67.015625 L -12.25 -66.96875 L -13.453125 -66.015625 L -15.5625 -62.734375 L -15.96875 -62.40625 L -16.546875 -61.8125 L -17.078125 -61 L -17.984375 -59.84375 L -18.5625 -59.265625 C -18.789062 -58.910156 -19.144531 -58.75 -19.625 -58.78125 C -19.8125 -58.90625 -20.113281 -59.039062 -20.53125 -59.1875 C -20.945312 -59.332031 -21.191406 -59.550781 -21.265625 -59.84375 C -21.359375 -60.289062 -21.269531 -60.773438 -21 -61.296875 C -20.726562 -61.828125 -20.476562 -62.28125 -20.25 -62.65625 L -18.71875 -65.328125 L -17.25 -68.234375 L -16.53125 -69.3125 L -10.515625 -79.328125 C -9.535156 -80.617188 -8.789062 -81.710938 -8.28125 -82.609375 C -7.78125 -83.503906 -7.53125 -83.953125 -7.53125 -83.953125 C -7.707031 -84.078125 -8.039062 -84.003906 -8.53125 -83.734375 C -9.03125 -83.460938 -9.265625 -83.257812 -9.234375 -83.125 C -9.335938 -82.9375 -9.5 -82.816406 -9.71875 -82.765625 C -9.945312 -82.710938 -10.117188 -82.59375 -10.234375 -82.40625 L -13.984375 -80.1875 C -15.109375 -79.632812 -15.859375 -79.164062 -16.234375 -78.78125 L -18.25 -77.140625 C -19.363281 -76.585938 -20.078125 -76.28125 -20.390625 -76.21875 C -21.285156 -76.019531 -21.609375 -76.421875 -21.359375 -77.421875 C -21.109375 -77.773438 -20.570312 -78.207031 -19.75 -78.71875 L -13.359375 -82.671875 L -11.3125 -84.078125 C -11.082031 -84.429688 -10.679688 -84.753906 -10.109375 -85.046875 C -9.304688 -85.679688 -8.757812 -86.035156 -8.46875 -86.109375 C -8.3125 -86.140625 -8.203125 -86.195312 -8.140625 -86.28125 C -8.085938 -86.363281 -8.0625 -86.40625 -8.0625 -86.40625 C -8.0625 -86.40625 -7.460938 -86.851562 -6.265625 -87.75 L -4.390625 -88.859375 C -4.140625 -89.210938 -3.773438 -89.71875 -3.296875 -90.375 C -2.816406 -91.03125 -2.34375 -91.722656 -1.875 -92.453125 L 4.25 -100.8125 L 8.078125 -105.875 L 14.015625 -113.046875 C 14.140625 -113.234375 14.734375 -113.910156 15.796875 -115.078125 C 16.867188 -116.242188 17.976562 -117.421875 19.125 -118.609375 L 22.421875 -121.90625 L 24.125 -123.703125 L 26.3125 -125.578125 C 30.875 -129.691406 35.601562 -133.070312 40.5 -135.71875 L 42.203125 -136.546875 C 43.265625 -137.410156 44.660156 -138.179688 46.390625 -138.859375 L 48.75 -139.84375 C 49.863281 -140.414062 50.914062 -140.765625 51.90625 -140.890625 C 52.894531 -141.023438 53.503906 -140.960938 53.734375 -140.703125 Z M 52.203125 -136.859375 C 52.203125 -136.859375 52.222656 -136.9375 52.265625 -137.09375 C 52.316406 -137.257812 52.328125 -137.421875 52.296875 -137.578125 C 52.046875 -137.992188 51.679688 -138.222656 51.203125 -138.265625 C 50.878906 -138.359375 50.019531 -138.175781 48.625 -137.71875 C 47.238281 -137.257812 46.414062 -136.921875 46.15625 -136.703125 L 42.796875 -134.8125 C 41.003906 -133.78125 38.867188 -132.484375 36.390625 -130.921875 C 33.921875 -129.367188 31.75 -127.847656 29.875 -126.359375 C 27.375 -124.242188 24.773438 -121.832031 22.078125 -119.125 C 19.378906 -116.425781 17.359375 -114.226562 16.015625 -112.53125 L 14.5 -110.796875 C 14.363281 -110.765625 13.648438 -109.941406 12.359375 -108.328125 C 11.066406 -106.722656 9.597656 -104.84375 7.953125 -102.6875 C 6.316406 -100.539062 4.894531 -98.628906 3.6875 -96.953125 L 1.5 -94.125 C 1.363281 -94.09375 1.34375 -93.851562 1.4375 -93.40625 C 1.46875 -93.257812 2.160156 -93.644531 3.515625 -94.5625 C 4.203125 -95.03125 4.738281 -95.457031 5.125 -95.84375 C 5.507812 -96.238281 5.769531 -96.453125 5.90625 -96.484375 C 6.21875 -96.554688 6.898438 -97.023438 7.953125 -97.890625 C 8.484375 -98.304688 8.921875 -98.628906 9.265625 -98.859375 C 9.609375 -99.085938 9.851562 -99.21875 10 -99.25 C 10.144531 -99.28125 10.898438 -99.757812 12.265625 -100.6875 L 16.734375 -103.78125 L 20.796875 -106.78125 L 23.671875 -108.5625 C 23.929688 -108.789062 24.40625 -109.132812 25.09375 -109.59375 C 25.78125 -110.0625 26.367188 -110.585938 26.859375 -111.171875 L 30.671875 -114.109375 L 32.828125 -115.984375 L 35.234375 -117.921875 L 41.921875 -123.8125 C 43.222656 -125.03125 44.503906 -126.320312 45.765625 -127.6875 C 47.035156 -129.0625 47.894531 -130.113281 48.34375 -130.84375 L 50.203125 -133.125 C 50.359375 -133.15625 50.691406 -133.773438 51.203125 -134.984375 Z M 52.203125 -136.859375 "/></g></g></g><g fill="#ffffff" fill-opacity="1"><g transform="translate(289.124247, 227.840038)"><g><path d="M -7.390625 -79.046875 C -7.804688 -78.796875 -8.285156 -78.84375 -8.828125 -79.1875 C -9.378906 -79.539062 -9.523438 -79.828125 -9.265625 -80.046875 C -9.015625 -80.410156 -8.957031 -80.894531 -9.09375 -81.5 C -9.125 -83.0625 -8.535156 -83.578125 -7.328125 -83.046875 C -6.796875 -82.691406 -6.5 -82.367188 -6.4375 -82.078125 C -6.1875 -81.660156 -6.179688 -81.113281 -6.421875 -80.4375 C -6.660156 -79.769531 -6.984375 -79.304688 -7.390625 -79.046875 Z M -16.640625 -60.140625 C -18.847656 -59.515625 -20.097656 -59.875 -20.390625 -61.21875 L -20.546875 -61.890625 C -20.960938 -63.816406 -19.59375 -66.847656 -16.4375 -70.984375 C -14.78125 -72.753906 -13.617188 -73.550781 -12.953125 -73.375 C -11.816406 -73.144531 -12.289062 -71.710938 -14.375 -69.078125 L -17.484375 -65.125 C -17.929688 -64.257812 -18.039062 -63.300781 -17.8125 -62.25 C -17.320312 -62.1875 -16.757812 -62.304688 -16.125 -62.609375 C -15.488281 -62.910156 -15.171875 -63.0625 -15.171875 -63.0625 C -13.597656 -63.71875 -11.316406 -65.070312 -8.328125 -67.125 C -5.335938 -69.1875 -1.609375 -71.796875 2.859375 -74.953125 L 3.28125 -75.296875 L 3.71875 -75.390625 L 4.203125 -75.25 C 5.023438 -75.125 5.054688 -74.660156 4.296875 -73.859375 L 1.84375 -72.171875 L -7.015625 -65.546875 C -8.640625 -64.390625 -10.359375 -63.300781 -12.171875 -62.28125 C -13.992188 -61.269531 -15.484375 -60.554688 -16.640625 -60.140625 Z M -16.640625 -60.140625 "/></g></g></g><g fill="#ffffff" fill-opacity="1"><g transform="translate(307.926432, 223.737029)"><g><path d="M 0.109375 -62.875 C -2.503906 -61.976562 -4.519531 -61.925781 -5.9375 -62.71875 C -6.457031 -62.914062 -6.90625 -63.523438 -7.28125 -64.546875 C -7.65625 -65.566406 -7.757812 -66.398438 -7.59375 -67.046875 L -7.296875 -67.8125 L -7.34375 -68.046875 L -7.078125 -69.046875 L -7.3125 -69 C -8.226562 -68.164062 -9.875 -66.742188 -12.25 -64.734375 C -14.632812 -62.734375 -16.257812 -61.25 -17.125 -60.28125 C -18.113281 -59.757812 -18.609375 -59.5 -18.609375 -59.5 C -19.054688 -59.40625 -19.429688 -59.515625 -19.734375 -59.828125 C -20.046875 -60.148438 -20.15625 -60.472656 -20.0625 -60.796875 L -20.203125 -61.46875 C -19.160156 -63.113281 -18.460938 -64.910156 -18.109375 -66.859375 L -16.96875 -69.21875 C -16.050781 -71.457031 -15.03125 -72.148438 -13.90625 -71.296875 C -13.332031 -70.796875 -13.171875 -70.050781 -13.421875 -69.0625 L -14.453125 -66.25 L -7.984375 -70.953125 C -7.597656 -71.347656 -7.164062 -71.710938 -6.6875 -72.046875 C -6.21875 -72.390625 -5.925781 -72.65625 -5.8125 -72.84375 C -4.425781 -74.394531 -3.53125 -74.585938 -3.125 -73.421875 C -2.71875 -72.253906 -2.847656 -71.054688 -3.515625 -69.828125 C -4.671875 -68.003906 -5.003906 -66.675781 -4.515625 -65.84375 C -3.960938 -63.3125 1.328125 -64.851562 11.359375 -70.46875 C 12.484375 -71.039062 13.960938 -71.957031 15.796875 -73.21875 C 17.640625 -74.476562 19.3125 -75.582031 20.8125 -76.53125 C 22.976562 -78.09375 24.507812 -79.128906 25.40625 -79.640625 C 26.3125 -80.160156 26.859375 -80.359375 27.046875 -80.234375 C 27.847656 -80.109375 28.054688 -79.84375 27.671875 -79.4375 C 27.296875 -79.039062 26.5625 -78.488281 25.46875 -77.78125 C 24.632812 -77.289062 24.050781 -76.925781 23.71875 -76.6875 C 23.382812 -76.457031 22.816406 -76.03125 22.015625 -75.40625 L 20.8125 -74.4375 L 18.578125 -72.75 L 15.75 -70.734375 C 15.75 -70.734375 14.394531 -69.929688 11.6875 -68.328125 C 8.988281 -66.734375 6.648438 -65.484375 4.671875 -64.578125 Z M 0.109375 -62.875 "/></g></g></g><g fill="#ffffff" fill-opacity="1"><g transform="translate(350.007526, 214.554102)"><g><path d="M -19.484375 -48.5 C -19.898438 -48.257812 -20.390625 -48.15625 -20.953125 -48.1875 C -21.515625 -48.226562 -21.828125 -48.394531 -21.890625 -48.6875 C -21.890625 -48.6875 -21.992188 -48.820312 -22.203125 -49.09375 C -22.410156 -49.363281 -22.675781 -49.535156 -23 -49.609375 C -23.550781 -49.953125 -23.957031 -50.726562 -24.21875 -51.9375 C -24.4375 -53.601562 -23.234375 -55.582031 -20.609375 -57.875 L -18.53125 -60.21875 C -18.394531 -60.25 -18.191406 -60.367188 -17.921875 -60.578125 C -17.648438 -60.796875 -17.304688 -61.03125 -16.890625 -61.28125 C -15.828125 -62.125 -15.238281 -62.640625 -15.125 -62.828125 C -15.1875 -63.117188 -15.257812 -63.644531 -15.34375 -64.40625 C -15.425781 -65.175781 -15.582031 -66.085938 -15.8125 -67.140625 C -16.269531 -69.222656 -16.46875 -70.660156 -16.40625 -71.453125 C -16.34375 -72.242188 -15.859375 -73.054688 -14.953125 -73.890625 C -13.617188 -74.953125 -12.679688 -75.304688 -12.140625 -74.953125 C -10.984375 -73.960938 -11.171875 -73.066406 -12.703125 -72.265625 C -13.273438 -71.972656 -13.566406 -71.671875 -13.578125 -71.359375 C -13.597656 -71.054688 -13.585938 -70.125 -13.546875 -68.5625 C -13.378906 -67.050781 -13.097656 -66.101562 -12.703125 -65.71875 C -12.304688 -65.332031 -11.769531 -65.367188 -11.09375 -65.828125 C -10.320312 -66.617188 -8.859375 -67.632812 -6.703125 -68.875 C -4.546875 -70.125 -2.34375 -71.304688 -0.09375 -72.421875 C 2.15625 -73.546875 3.710938 -74.28125 4.578125 -74.625 C 5.671875 -75.332031 6.421875 -75.5 6.828125 -75.125 C 7.546875 -74.65625 7.132812 -74.019531 5.59375 -73.21875 C 3.78125 -72.195312 1.859375 -71.148438 -0.171875 -70.078125 C -2.203125 -69.015625 -2.800781 -68.726562 -1.96875 -69.21875 C -3.363281 -68.445312 -4.679688 -67.691406 -5.921875 -66.953125 C -7.160156 -66.210938 -8.179688 -65.519531 -8.984375 -64.875 L -11.03125 -63.484375 C -11.675781 -62.867188 -11.960938 -62.03125 -11.890625 -60.96875 C -11.890625 -59.5625 -12.050781 -58.503906 -12.375 -57.796875 C -12.59375 -56.648438 -13.515625 -54.957031 -15.140625 -52.71875 C -16.765625 -50.488281 -18.210938 -49.082031 -19.484375 -48.5 Z M -20.03125 -50.953125 C -19.445312 -51.085938 -18.566406 -52.066406 -17.390625 -53.890625 C -16.460938 -55.335938 -15.875 -56.40625 -15.625 -57.09375 C -15.375 -57.78125 -15.242188 -58.429688 -15.234375 -59.046875 L -15.484375 -60.1875 L -16.84375 -58.9375 L -18.796875 -57.109375 C -18.921875 -56.910156 -19.5625 -56.253906 -20.71875 -55.140625 C -21.875 -54.035156 -22.375 -53.113281 -22.21875 -52.375 C -21.957031 -51.164062 -21.226562 -50.691406 -20.03125 -50.953125 Z M -20.03125 -50.953125 "/></g></g></g></svg>